<?xml version="1.0" encoding="UTF-8" standalone="no"?>
<svg
   width="496.509484pt"
   height="279.673607pt"
   viewBox="0 0 496.509484 279.673607"
   version="1.1"
   id="svg682"
   sodipodi:docname="age-bloodtype.svg"
   inkscape:version="1.2 (dc2aeda, 2022-05-15)"
   xmlns:inkscape="http://www.inkscape.org/namespaces/inkscape"
   xmlns:sodipodi="http://sodipodi.sourceforge.net/DTD/sodipodi-0.dtd"
   xmlns:xlink="http://www.w3.org/1999/xlink"
   xmlns="http://www.w3.org/2000/svg"
   xmlns:svg="http://www.w3.org/2000/svg"
   xmlns:rdf="http://www.w3.org/1999/02/22-rdf-syntax-ns#"
   xmlns:cc="http://creativecommons.org/ns#"
   xmlns:dc="http://purl.org/dc/elements/1.1/">
  <sodipodi:namedview
     id="namedview684"
     pagecolor="#ffffff"
     bordercolor="#000000"
     borderopacity="0.25"
     inkscape:showpageshadow="2"
     inkscape:pageopacity="0.0"
     inkscape:pagecheckerboard="0"
     inkscape:deskcolor="#d1d1d1"
     inkscape:document-units="pt"
     showgrid="false"
     inkscape:zoom="0.63288058"
     inkscape:cx="332.60619"
     inkscape:cy="186.44908"
     inkscape:window-width="1680"
     inkscape:window-height="924"
     inkscape:window-x="0"
     inkscape:window-y="25"
     inkscape:window-maximized="1"
     inkscape:current-layer="axes_1" />
  <metadata
     id="metadata132">
    <rdf:RDF>
      <cc:Work>
        <dc:type
           rdf:resource="http://purl.org/dc/dcmitype/StillImage" />
        <dc:date>2025-04-20T10:15:48.368697</dc:date>
        <dc:format>image/svg+xml</dc:format>
        <dc:creator>
          <cc:Agent>
            <dc:title>Matplotlib v3.9.2, https://matplotlib.org/</dc:title>
          </cc:Agent>
        </dc:creator>
      </cc:Work>
    </rdf:RDF>
  </metadata>
  <defs
     id="defs136">
    <style
       type="text/css"
       id="style134">*{stroke-linejoin: round; stroke-linecap: butt}</style>
  </defs>
  <g
     id="figure_1">
    <g
       id="patch_1" />
    <g
       id="axes_1">
      <g
         id="matplotlib.axis_1">
        <g
           id="xtick_1">
          <g
             id="line2d_1">
            <defs
               id="defs145">
              <path
                 id="m3dbb2000ab"
                 d="M 0 0  L 0 3.5  "
                 style="stroke: #000000; stroke-width: 0.8" />
            </defs>
            <g
               id="g149">
              <use
                 xlink:href="#m3dbb2000ab"
                 x="72.192515"
                 y="233.49517"
                 style="stroke: #000000; stroke-width: 0.8"
                 id="use147" />
            </g>
          </g>
          <g
             id="text_1">
            <!-- 0 -->
            <g
               transform="translate(68.299859 250.537982) scale(0.14 -0.14)"
               id="g157">
              <defs
                 id="defs153">
                <path
                   id="Helvetica-30"
                   d="M 1731 4475  Q 2600 4475 2988 3759  Q 3288 3206 3288 2244  Q 3288 1331 3016 734  Q 2622 -122 1728 -122  Q 922 -122 528 578  Q 200 1163 200 2147  Q 200 2909 397 3456  Q 766 4475 1731 4475  z M 1725 391  Q 2163 391 2422 778  Q 2681 1166 2681 2222  Q 2681 2984 2493 3476  Q 2306 3969 1766 3969  Q 1269 3969 1039 3501  Q 809 3034 809 2125  Q 809 1441 956 1025  Q 1181 391 1725 391  z "
                   transform="scale(0.015625)" />
              </defs>
              <use
                 xlink:href="#Helvetica-30"
                 id="use155" />
            </g>
          </g>
        </g>
        <g
           id="xtick_2">
          <g
             id="line2d_2">
            <g
               id="g163">
              <use
                 xlink:href="#m3dbb2000ab"
                 x="153.280315"
                 y="233.49517"
                 style="stroke: #000000; stroke-width: 0.8"
                 id="use161" />
            </g>
          </g>
          <g
             id="text_2">
            <!-- 20 -->
            <g
               transform="translate(145.495002 250.537982) scale(0.14 -0.14)"
               id="g173">
              <defs
                 id="defs167">
                <path
                   id="Helvetica-32"
                   d="M 200 0  Q 231 578 439 1006  Q 647 1434 1250 1784  L 1850 2131  Q 2253 2366 2416 2531  Q 2672 2791 2672 3125  Q 2672 3516 2437 3745  Q 2203 3975 1813 3975  Q 1234 3975 1013 3538  Q 894 3303 881 2888  L 309 2888  Q 319 3472 525 3841  Q 891 4491 1816 4491  Q 2584 4491 2939 4075  Q 3294 3659 3294 3150  Q 3294 2613 2916 2231  Q 2697 2009 2131 1694  L 1703 1456  Q 1397 1288 1222 1134  Q 909 863 828 531  L 3272 531  L 3272 0  L 200 0  z "
                   transform="scale(0.015625)" />
              </defs>
              <use
                 xlink:href="#Helvetica-32"
                 id="use169" />
              <use
                 xlink:href="#Helvetica-30"
                 x="55.615234"
                 id="use171" />
            </g>
          </g>
        </g>
        <g
           id="xtick_3">
          <g
             id="line2d_3">
            <g
               id="g179">
              <use
                 xlink:href="#m3dbb2000ab"
                 x="234.368115"
                 y="233.49517"
                 style="stroke: #000000; stroke-width: 0.8"
                 id="use177" />
            </g>
          </g>
          <g
             id="text_3">
            <!-- 40 -->
            <g
               transform="translate(226.582802 250.537982) scale(0.14 -0.14)"
               id="g189">
              <defs
                 id="defs183">
                <path
                   id="Helvetica-34"
                   d="M 2116 1584  L 2116 3613  L 681 1584  L 2116 1584  z M 2125 0  L 2125 1094  L 163 1094  L 163 1644  L 2213 4488  L 2688 4488  L 2688 1584  L 3347 1584  L 3347 1094  L 2688 1094  L 2688 0  L 2125 0  z "
                   transform="scale(0.015625)" />
              </defs>
              <use
                 xlink:href="#Helvetica-34"
                 id="use185" />
              <use
                 xlink:href="#Helvetica-30"
                 x="55.615234"
                 id="use187" />
            </g>
          </g>
        </g>
        <g
           id="xtick_4">
          <g
             id="line2d_4">
            <g
               id="g195">
              <use
                 xlink:href="#m3dbb2000ab"
                 x="315.455915"
                 y="233.49517"
                 style="stroke: #000000; stroke-width: 0.8"
                 id="use193" />
            </g>
          </g>
          <g
             id="text_4">
            <!-- 60 -->
            <g
               transform="translate(307.670603 250.537982) scale(0.14 -0.14)"
               id="g205">
              <defs
                 id="defs199">
                <path
                   id="Helvetica-36"
                   d="M 1872 4494  Q 2622 4494 2917 4105  Q 3213 3716 3213 3303  L 2656 3303  Q 2606 3569 2497 3719  Q 2294 4000 1881 4000  Q 1409 4000 1131 3564  Q 853 3128 822 2316  Q 1016 2600 1309 2741  Q 1578 2866 1909 2866  Q 2472 2866 2890 2506  Q 3309 2147 3309 1434  Q 3309 825 2912 354  Q 2516 -116 1781 -116  Q 1153 -116 697 361  Q 241 838 241 1966  Q 241 2800 444 3381  Q 834 4494 1872 4494  z M 1831 384  Q 2275 384 2495 682  Q 2716 981 2716 1388  Q 2716 1731 2519 2042  Q 2322 2353 1803 2353  Q 1441 2353 1167 2112  Q 894 1872 894 1388  Q 894 963 1142 673  Q 1391 384 1831 384  z "
                   transform="scale(0.015625)" />
              </defs>
              <use
                 xlink:href="#Helvetica-36"
                 id="use201" />
              <use
                 xlink:href="#Helvetica-30"
                 x="55.615234"
                 id="use203" />
            </g>
          </g>
        </g>
        <g
           id="xtick_5">
          <g
             id="line2d_5">
            <g
               id="g211">
              <use
                 xlink:href="#m3dbb2000ab"
                 x="396.543715"
                 y="233.49517"
                 style="stroke: #000000; stroke-width: 0.8"
                 id="use209" />
            </g>
          </g>
          <g
             id="text_5">
            <!-- 80 -->
            <g
               transform="translate(388.758402 250.537982) scale(0.14 -0.14)"
               id="g221">
              <defs
                 id="defs215">
                <path
                   id="Helvetica-38"
                   d="M 1741 2600  Q 2113 2600 2322 2808  Q 2531 3016 2531 3303  Q 2531 3553 2331 3762  Q 2131 3972 1722 3972  Q 1316 3972 1134 3762  Q 953 3553 953 3272  Q 953 2956 1187 2778  Q 1422 2600 1741 2600  z M 1775 384  Q 2166 384 2423 595  Q 2681 806 2681 1225  Q 2681 1659 2415 1884  Q 2150 2109 1734 2109  Q 1331 2109 1076 1879  Q 822 1650 822 1244  Q 822 894 1055 639  Q 1288 384 1775 384  z M 975 2384  Q 741 2484 609 2619  Q 363 2869 363 3269  Q 363 3769 725 4128  Q 1088 4488 1753 4488  Q 2397 4488 2762 4148  Q 3128 3809 3128 3356  Q 3128 2938 2916 2678  Q 2797 2531 2547 2391  Q 2825 2263 2984 2097  Q 3281 1784 3281 1284  Q 3281 694 2884 283  Q 2488 -128 1763 -128  Q 1109 -128 657 226  Q 206 581 206 1256  Q 206 1653 400 1942  Q 594 2231 975 2384  z "
                   transform="scale(0.015625)" />
              </defs>
              <use
                 xlink:href="#Helvetica-38"
                 id="use217" />
              <use
                 xlink:href="#Helvetica-30"
                 x="55.615234"
                 id="use219" />
            </g>
          </g>
        </g>
        <g
           id="xtick_6">
          <g
             id="line2d_6">
            <g
               id="g227">
              <use
                 xlink:href="#m3dbb2000ab"
                 x="477.631515"
                 y="233.49517"
                 style="stroke: #000000; stroke-width: 0.8"
                 id="use225" />
            </g>
          </g>
          <g
             id="text_6">
            <!-- 100 -->
            <g
               transform="translate(465.953546 250.537982) scale(0.14 -0.14)"
               id="g239">
              <defs
                 id="defs231">
                <path
                   id="Helvetica-31"
                   d="M 613 3169  L 613 3600  Q 1222 3659 1462 3798  Q 1703 3938 1822 4456  L 2266 4456  L 2266 0  L 1666 0  L 1666 3169  L 613 3169  z "
                   transform="scale(0.015625)" />
              </defs>
              <use
                 xlink:href="#Helvetica-31"
                 id="use233" />
              <use
                 xlink:href="#Helvetica-30"
                 x="55.615234"
                 id="use235" />
              <use
                 xlink:href="#Helvetica-30"
                 x="111.230469"
                 id="use237" />
            </g>
          </g>
        </g>
        <g
           id="text_7">
          <!-- Age -->
          <g
             transform="translate(260.678265 268.933607) scale(0.16 -0.16)"
             id="g254">
            <defs
               id="defs246">
              <path
                 id="Helvetica-41"
                 d="M 2844 1881  L 2147 3909  L 1406 1881  L 2844 1881  z M 1822 4591  L 2525 4591  L 4191 0  L 3509 0  L 3044 1375  L 1228 1375  L 731 0  L 94 0  L 1822 4591  z "
                 transform="scale(0.015625)" />
              <path
                 id="Helvetica-67"
                 d="M 1594 3406  Q 1988 3406 2281 3213  Q 2441 3103 2606 2894  L 2606 3316  L 3125 3316  L 3125 272  Q 3125 -366 2938 -734  Q 2588 -1416 1616 -1416  Q 1075 -1416 706 -1173  Q 338 -931 294 -416  L 866 -416  Q 906 -641 1028 -763  Q 1219 -950 1628 -950  Q 2275 -950 2475 -494  Q 2594 -225 2584 466  Q 2416 209 2178 84  Q 1941 -41 1550 -41  Q 1006 -41 598 345  Q 191 731 191 1622  Q 191 2463 602 2934  Q 1013 3406 1594 3406  z M 2606 1688  Q 2606 2309 2350 2609  Q 2094 2909 1697 2909  Q 1103 2909 884 2353  Q 769 2056 769 1575  Q 769 1009 998 714  Q 1228 419 1616 419  Q 2222 419 2469 966  Q 2606 1275 2606 1688  z M 1659 3428  L 1659 3428  z "
                 transform="scale(0.015625)" />
              <path
                 id="Helvetica-65"
                 d="M 1806 3422  Q 2163 3422 2497 3255  Q 2831 3088 3006 2822  Q 3175 2569 3231 2231  Q 3281 2000 3281 1494  L 828 1494  Q 844 984 1069 676  Q 1294 369 1766 369  Q 2206 369 2469 659  Q 2619 828 2681 1050  L 3234 1050  Q 3213 866 3089 639  Q 2966 413 2813 269  Q 2556 19 2178 -69  Q 1975 -119 1719 -119  Q 1094 -119 659 336  Q 225 791 225 1609  Q 225 2416 662 2919  Q 1100 3422 1806 3422  z M 2703 1941  Q 2669 2306 2544 2525  Q 2313 2931 1772 2931  Q 1384 2931 1121 2651  Q 859 2372 844 1941  L 2703 1941  z M 1753 3428  L 1753 3428  z "
                 transform="scale(0.015625)" />
            </defs>
            <use
               xlink:href="#Helvetica-41"
               id="use248" />
            <use
               xlink:href="#Helvetica-67"
               x="66.699219"
               id="use250" />
            <use
               xlink:href="#Helvetica-65"
               x="122.314453"
               id="use252" />
          </g>
        </g>
      </g>
      <g
         id="matplotlib.axis_2">
        <g
           id="ytick_1">
          <g
             id="line2d_7">
            <defs
               id="defs259">
              <path
                 id="m906c2de6a0"
                 d="M 0 0  L -3.5 0  "
                 style="stroke: #000000; stroke-width: 0.8" />
            </defs>
            <g
               id="g263">
              <use
                 xlink:href="#m906c2de6a0"
                 x="68.138125"
                 y="226.790824"
                 style="stroke: #000000; stroke-width: 0.8"
                 id="use261" />
            </g>
          </g>
          <g
             id="text_8">
            <!-- 0.000 -->
            <g
               transform="translate(26.1075 231.81223) scale(0.14 -0.14)"
               id="g279">
              <defs
                 id="defs267">
                <path
                   id="Helvetica-2e"
                   d="M 547 681  L 1200 681  L 1200 0  L 547 0  L 547 681  z "
                   transform="scale(0.015625)" />
              </defs>
              <use
                 xlink:href="#Helvetica-30"
                 id="use269" />
              <use
                 xlink:href="#Helvetica-2e"
                 x="55.615234"
                 id="use271" />
              <use
                 xlink:href="#Helvetica-30"
                 x="83.398438"
                 id="use273" />
              <use
                 xlink:href="#Helvetica-30"
                 x="139.013672"
                 id="use275" />
              <use
                 xlink:href="#Helvetica-30"
                 x="194.628906"
                 id="use277" />
            </g>
          </g>
        </g>
        <g
           id="ytick_2">
          <g
             id="line2d_8">
            <g
               id="g285">
              <use
                 xlink:href="#m906c2de6a0"
                 x="68.138125"
                 y="193.269092"
                 style="stroke: #000000; stroke-width: 0.8"
                 id="use283" />
            </g>
          </g>
          <g
             id="text_9">
            <!-- 0.005 -->
            <g
               transform="translate(26.1075 198.290498) scale(0.14 -0.14)"
               id="g301">
              <defs
                 id="defs289">
                <path
                   id="Helvetica-35"
                   d="M 791 1141  Q 847 659 1238 475  Q 1438 381 1700 381  Q 2200 381 2440 700  Q 2681 1019 2681 1406  Q 2681 1875 2395 2131  Q 2109 2388 1709 2388  Q 1419 2388 1211 2275  Q 1003 2163 856 1963  L 369 1991  L 709 4400  L 3034 4400  L 3034 3856  L 1131 3856  L 941 2613  Q 1097 2731 1238 2791  Q 1488 2894 1816 2894  Q 2431 2894 2859 2497  Q 3288 2100 3288 1491  Q 3288 856 2895 371  Q 2503 -113 1644 -113  Q 1097 -113 676 195  Q 256 503 206 1141  L 791 1141  z "
                   transform="scale(0.015625)" />
              </defs>
              <use
                 xlink:href="#Helvetica-30"
                 id="use291" />
              <use
                 xlink:href="#Helvetica-2e"
                 x="55.615234"
                 id="use293" />
              <use
                 xlink:href="#Helvetica-30"
                 x="83.398438"
                 id="use295" />
              <use
                 xlink:href="#Helvetica-30"
                 x="139.013672"
                 id="use297" />
              <use
                 xlink:href="#Helvetica-35"
                 x="194.628906"
                 id="use299" />
            </g>
          </g>
        </g>
        <g
           id="ytick_3">
          <g
             id="line2d_9">
            <g
               id="g307">
              <use
                 xlink:href="#m906c2de6a0"
                 x="68.138125"
                 y="159.747361"
                 style="stroke: #000000; stroke-width: 0.8"
                 id="use305" />
            </g>
          </g>
          <g
             id="text_10">
            <!-- 0.010 -->
            <g
               transform="translate(26.1075 164.768767) scale(0.14 -0.14)"
               id="g320">
              <use
                 xlink:href="#Helvetica-30"
                 id="use310" />
              <use
                 xlink:href="#Helvetica-2e"
                 x="55.615234"
                 id="use312" />
              <use
                 xlink:href="#Helvetica-30"
                 x="83.398438"
                 id="use314" />
              <use
                 xlink:href="#Helvetica-31"
                 x="139.013672"
                 id="use316" />
              <use
                 xlink:href="#Helvetica-30"
                 x="194.628906"
                 id="use318" />
            </g>
          </g>
        </g>
        <g
           id="ytick_4">
          <g
             id="line2d_10">
            <g
               id="g326">
              <use
                 xlink:href="#m906c2de6a0"
                 x="68.138125"
                 y="126.225629"
                 style="stroke: #000000; stroke-width: 0.8"
                 id="use324" />
            </g>
          </g>
          <g
             id="text_11">
            <!-- 0.015 -->
            <g
               transform="translate(26.1075 131.247035) scale(0.14 -0.14)"
               id="g339">
              <use
                 xlink:href="#Helvetica-30"
                 id="use329" />
              <use
                 xlink:href="#Helvetica-2e"
                 x="55.615234"
                 id="use331" />
              <use
                 xlink:href="#Helvetica-30"
                 x="83.398438"
                 id="use333" />
              <use
                 xlink:href="#Helvetica-31"
                 x="139.013672"
                 id="use335" />
              <use
                 xlink:href="#Helvetica-35"
                 x="194.628906"
                 id="use337" />
            </g>
          </g>
        </g>
        <g
           id="ytick_5">
          <g
             id="line2d_11">
            <g
               id="g345">
              <use
                 xlink:href="#m906c2de6a0"
                 x="68.138125"
                 y="92.703898"
                 style="stroke: #000000; stroke-width: 0.8"
                 id="use343" />
            </g>
          </g>
          <g
             id="text_12">
            <!-- 0.020 -->
            <g
               transform="translate(26.1075 97.725304) scale(0.14 -0.14)"
               id="g358">
              <use
                 xlink:href="#Helvetica-30"
                 id="use348" />
              <use
                 xlink:href="#Helvetica-2e"
                 x="55.615234"
                 id="use350" />
              <use
                 xlink:href="#Helvetica-30"
                 x="83.398438"
                 id="use352" />
              <use
                 xlink:href="#Helvetica-32"
                 x="139.013672"
                 id="use354" />
              <use
                 xlink:href="#Helvetica-30"
                 x="194.628906"
                 id="use356" />
            </g>
          </g>
        </g>
        <g
           id="ytick_6">
          <g
             id="line2d_12">
            <g
               id="g364">
              <use
                 xlink:href="#m906c2de6a0"
                 x="68.138125"
                 y="59.182166"
                 style="stroke: #000000; stroke-width: 0.8"
                 id="use362" />
            </g>
          </g>
          <g
             id="text_13">
            <!-- 0.025 -->
            <g
               transform="translate(26.1075 64.203572) scale(0.14 -0.14)"
               id="g377">
              <use
                 xlink:href="#Helvetica-30"
                 id="use367" />
              <use
                 xlink:href="#Helvetica-2e"
                 x="55.615234"
                 id="use369" />
              <use
                 xlink:href="#Helvetica-30"
                 x="83.398438"
                 id="use371" />
              <use
                 xlink:href="#Helvetica-32"
                 x="139.013672"
                 id="use373" />
              <use
                 xlink:href="#Helvetica-35"
                 x="194.628906"
                 id="use375" />
            </g>
          </g>
        </g>
        <g
           id="ytick_7">
          <g
             id="line2d_13">
            <g
               id="g383">
              <use
                 xlink:href="#m906c2de6a0"
                 x="68.138125"
                 y="25.660435"
                 style="stroke: #000000; stroke-width: 0.8"
                 id="use381" />
            </g>
          </g>
          <g
             id="text_14">
            <!-- 0.030 -->
            <g
               transform="translate(26.1075 30.681841) scale(0.14 -0.14)"
               id="g399">
              <defs
                 id="defs387">
                <path
                   id="Helvetica-33"
                   d="M 1663 -122  Q 869 -122 511 314  Q 153 750 153 1375  L 741 1375  Q 778 941 903 744  Q 1122 391 1694 391  Q 2138 391 2406 628  Q 2675 866 2675 1241  Q 2675 1703 2392 1887  Q 2109 2072 1606 2072  Q 1550 2072 1492 2070  Q 1434 2069 1375 2066  L 1375 2563  Q 1463 2553 1522 2550  Q 1581 2547 1650 2547  Q 1966 2547 2169 2647  Q 2525 2822 2525 3272  Q 2525 3606 2287 3787  Q 2050 3969 1734 3969  Q 1172 3969 956 3594  Q 838 3388 822 3006  L 266 3006  Q 266 3506 466 3856  Q 809 4481 1675 4481  Q 2359 4481 2734 4176  Q 3109 3872 3109 3294  Q 3109 2881 2888 2625  Q 2750 2466 2531 2375  Q 2884 2278 3082 2001  Q 3281 1725 3281 1325  Q 3281 684 2859 281  Q 2438 -122 1663 -122  z "
                   transform="scale(0.015625)" />
              </defs>
              <use
                 xlink:href="#Helvetica-30"
                 id="use389" />
              <use
                 xlink:href="#Helvetica-2e"
                 x="55.615234"
                 id="use391" />
              <use
                 xlink:href="#Helvetica-30"
                 x="83.398438"
                 id="use393" />
              <use
                 xlink:href="#Helvetica-33"
                 x="139.013672"
                 id="use395" />
              <use
                 xlink:href="#Helvetica-30"
                 x="194.628906"
                 id="use397" />
            </g>
          </g>
        </g>
        <g
           id="text_15">
          <!-- Frequency -->
          <g
             transform="translate(18.6775 164.019379) rotate(-90) scale(0.16 -0.16)"
             id="g430">
            <defs
               id="defs410">
              <path
                 id="Helvetica-46"
                 d="M 547 4591  L 3731 4591  L 3731 4028  L 1169 4028  L 1169 2634  L 3422 2634  L 3422 2088  L 1169 2088  L 1169 0  L 547 0  L 547 4591  z "
                 transform="scale(0.015625)" />
              <path
                 id="Helvetica-72"
                 d="M 428 3347  L 963 3347  L 963 2769  Q 1028 2938 1284 3180  Q 1541 3422 1875 3422  Q 1891 3422 1928 3419  Q 1966 3416 2056 3406  L 2056 2813  Q 2006 2822 1964 2825  Q 1922 2828 1872 2828  Q 1447 2828 1219 2554  Q 991 2281 991 1925  L 991 0  L 428 0  L 428 3347  z "
                 transform="scale(0.015625)" />
              <path
                 id="Helvetica-71"
                 d="M 775 1628  Q 775 1194 897 900  Q 1113 378 1669 378  Q 2256 378 2478 928  Q 2600 1231 2600 1703  Q 2600 2138 2466 2428  Q 2238 2925 1663 2925  Q 1297 2925 1036 2608  Q 775 2291 775 1628  z M 1606 3422  Q 2022 3422 2306 3213  Q 2463 3100 2606 2881  L 2606 3347  L 3141 3347  L 3141 -1334  L 2575 -1334  L 2575 384  Q 2434 159 2186 26  Q 1938 -106 1566 -106  Q 1031 -106 609 312  Q 188 731 188 1588  Q 188 2391 583 2906  Q 978 3422 1606 3422  z "
                 transform="scale(0.015625)" />
              <path
                 id="Helvetica-75"
                 d="M 975 3347  L 975 1125  Q 975 869 1056 706  Q 1206 406 1616 406  Q 2203 406 2416 931  Q 2531 1213 2531 1703  L 2531 3347  L 3094 3347  L 3094 0  L 2563 0  L 2569 494  Q 2459 303 2297 172  Q 1975 -91 1516 -91  Q 800 -91 541 388  Q 400 644 400 1072  L 400 3347  L 975 3347  z M 1747 3428  L 1747 3428  z "
                 transform="scale(0.015625)" />
              <path
                 id="Helvetica-6e"
                 d="M 413 3347  L 947 3347  L 947 2872  Q 1184 3166 1450 3294  Q 1716 3422 2041 3422  Q 2753 3422 3003 2925  Q 3141 2653 3141 2147  L 3141 0  L 2569 0  L 2569 2109  Q 2569 2416 2478 2603  Q 2328 2916 1934 2916  Q 1734 2916 1606 2875  Q 1375 2806 1200 2600  Q 1059 2434 1017 2257  Q 975 2081 975 1753  L 975 0  L 413 0  L 413 3347  z M 1734 3428  L 1734 3428  z "
                 transform="scale(0.015625)" />
              <path
                 id="Helvetica-63"
                 d="M 1703 3444  Q 2269 3444 2623 3169  Q 2978 2894 3050 2222  L 2503 2222  Q 2453 2531 2275 2736  Q 2097 2941 1703 2941  Q 1166 2941 934 2416  Q 784 2075 784 1575  Q 784 1072 996 728  Q 1209 384 1666 384  Q 2016 384 2220 598  Q 2425 813 2503 1184  L 3050 1184  Q 2956 519 2581 211  Q 2206 -97 1622 -97  Q 966 -97 575 383  Q 184 863 184 1581  Q 184 2463 612 2953  Q 1041 3444 1703 3444  z M 1616 3428  L 1616 3428  z "
                 transform="scale(0.015625)" />
              <path
                 id="Helvetica-79"
                 d="M 2503 3347  L 3125 3347  Q 3006 3025 2597 1878  Q 2291 1016 2084 472  Q 1597 -809 1397 -1090  Q 1197 -1372 709 -1372  Q 591 -1372 527 -1362  Q 463 -1353 369 -1328  L 369 -816  Q 516 -856 581 -865  Q 647 -875 697 -875  Q 853 -875 926 -823  Q 1000 -772 1050 -697  Q 1066 -672 1162 -440  Q 1259 -209 1303 -97  L 66 3347  L 703 3347  L 1600 622  L 2503 3347  z M 1597 3428  L 1597 3428  z "
                 transform="scale(0.015625)" />
            </defs>
            <use
               xlink:href="#Helvetica-46"
               id="use412" />
            <use
               xlink:href="#Helvetica-72"
               x="61.083984"
               id="use414" />
            <use
               xlink:href="#Helvetica-65"
               x="94.384766"
               id="use416" />
            <use
               xlink:href="#Helvetica-71"
               x="150"
               id="use418" />
            <use
               xlink:href="#Helvetica-75"
               x="205.615234"
               id="use420" />
            <use
               xlink:href="#Helvetica-65"
               x="261.230469"
               id="use422" />
            <use
               xlink:href="#Helvetica-6e"
               x="316.845703"
               id="use424" />
            <use
               xlink:href="#Helvetica-63"
               x="372.460938"
               id="use426" />
            <use
               xlink:href="#Helvetica-79"
               x="422.460938"
               id="use428" />
          </g>
        </g>
      </g>
      <g
         id="line2d_14">
        <path
           d="M 114.76361 226.790824  L 118.818 226.790824  L 122.87239 226.790824  L 126.92678 226.790824  L 130.98117 226.790824  L 135.03556 226.790824  L 139.08995 226.790824  L 143.14434 226.790824  L 147.19873 108.225214  L 151.25312 129.782597  L 155.30751 124.393252  L 159.3619 119.003906  L 163.41629 194.454748  L 167.47068 113.61456  L 171.52507 102.835868  L 175.57946 92.057176  L 179.63385 151.339981  L 183.68824 151.339981  L 187.74263 135.171943  L 191.79702 97.446522  L 195.85141 145.950635  L 199.9058 86.66783  L 203.96019 108.225214  L 208.01458 129.782597  L 212.06897 167.508019  L 216.12336 124.393252  L 220.17775 113.61456  L 224.23214 162.118673  L 228.28653 124.393252  L 232.34092 119.003906  L 236.39531 124.393252  L 240.4497 70.499793  L 244.50409 124.393252  L 248.55848 119.003906  L 252.61287 156.729327  L 256.66726 145.950635  L 260.72165 124.393252  L 264.77604 183.676056  L 268.83043 113.61456  L 272.88482 140.561289  L 276.93921 140.561289  L 280.9936 59.721101  L 285.04799 124.393252  L 289.10238 135.171943  L 293.15677 129.782597  L 297.21116 119.003906  L 301.26555 129.782597  L 305.31994 129.782597  L 309.37433 140.561289  L 313.42872 135.171943  L 317.48311 129.782597  L 321.5375 108.225214  L 325.59189 151.339981  L 329.64628 145.950635  L 333.70067 135.171943  L 337.75506 129.782597  L 341.80945 70.499793  L 345.86384 102.835868  L 349.91823 129.782597  L 353.97262 140.561289  L 358.02701 156.729327  L 362.0814 113.61456  L 366.13579 145.950635  L 370.19018 119.003906  L 374.24457 108.225214  L 378.29896 124.393252  L 382.35335 156.729327  L 386.40774 119.003906  L 390.46213 97.446522  L 394.51652 135.171943  L 398.57091 167.508019  L 402.6253 129.782597  L 406.67969 162.118673  L 410.73408 140.561289  L 414.78847 124.393252  L 418.84286 124.393252  L 422.89725 226.790824  L 426.95164 226.790824  L 431.00603 226.790824  L 435.06042 226.790824  "
           clip-path="url(#p81e73bdf0f)"
           style="fill: none; stroke: #338080; stroke-linecap: square"
           id="path434" />
      </g>
      <g
         id="line2d_15">
        <path
           d="M 114.76361 226.790824  L 118.818 226.790824  L 122.87239 226.790824  L 126.92678 226.790824  L 130.98117 226.790824  L 135.03556 226.790824  L 139.08995 226.790824  L 143.14434 226.790824  L 147.19873 119.349377  L 151.25312 156.953883  L 155.30751 108.605232  L 159.3619 140.837666  L 163.41629 151.581811  L 167.47068 113.977304  L 171.52507 130.093521  L 175.57946 135.465594  L 179.63385 97.861087  L 183.68824 156.953883  L 187.74263 119.349377  L 191.79702 113.977304  L 195.85141 103.233159  L 199.9058 97.861087  L 203.96019 146.209738  L 208.01458 151.581811  L 212.06897 103.233159  L 216.12336 103.233159  L 220.17775 135.465594  L 224.23214 119.349377  L 228.28653 97.861087  L 232.34092 130.093521  L 236.39531 135.465594  L 240.4497 151.581811  L 244.50409 103.233159  L 248.55848 140.837666  L 252.61287 119.349377  L 256.66726 151.581811  L 260.72165 162.325955  L 264.77604 167.698028  L 268.83043 140.837666  L 272.88482 124.721449  L 276.93921 119.349377  L 280.9936 135.465594  L 285.04799 140.837666  L 289.10238 103.233159  L 293.15677 113.977304  L 297.21116 183.814245  L 301.26555 146.209738  L 305.31994 119.349377  L 309.37433 119.349377  L 313.42872 65.628653  L 317.48311 135.465594  L 321.5375 124.721449  L 325.59189 119.349377  L 329.64628 103.233159  L 333.70067 130.093521  L 337.75506 119.349377  L 341.80945 140.837666  L 345.86384 108.605232  L 349.91823 119.349377  L 353.97262 146.209738  L 358.02701 156.953883  L 362.0814 135.465594  L 366.13579 162.325955  L 370.19018 156.953883  L 374.24457 119.349377  L 378.29896 113.977304  L 382.35335 113.977304  L 386.40774 124.721449  L 390.46213 76.372798  L 394.51652 140.837666  L 398.57091 130.093521  L 402.6253 108.605232  L 406.67969 113.977304  L 410.73408 135.465594  L 414.78847 130.093521  L 418.84286 173.0701  L 422.89725 226.790824  L 426.95164 226.790824  L 431.00603 226.790824  L 435.06042 226.790824  "
           clip-path="url(#p81e73bdf0f)"
           style="fill: none; stroke: #4d8080; stroke-linecap: square"
           id="path437" />
      </g>
      <g
         id="line2d_16">
        <path
           d="M 114.76361 226.790824  L 118.818 226.790824  L 122.87239 226.790824  L 126.92678 226.790824  L 130.98117 226.790824  L 135.03556 226.790824  L 139.08995 226.790824  L 143.14434 226.790824  L 147.19873 108.982822  L 151.25312 130.402458  L 155.30751 108.982822  L 159.3619 125.047549  L 163.41629 135.757367  L 167.47068 108.982822  L 171.52507 151.822095  L 175.57946 114.337731  L 179.63385 130.402458  L 183.68824 135.757367  L 187.74263 103.627912  L 191.79702 114.337731  L 195.85141 167.886823  L 199.9058 125.047549  L 203.96019 114.337731  L 208.01458 130.402458  L 212.06897 146.467186  L 216.12336 103.627912  L 220.17775 119.69264  L 224.23214 125.047549  L 228.28653 119.69264  L 232.34092 119.69264  L 236.39531 125.047549  L 240.4497 119.69264  L 244.50409 108.982822  L 248.55848 108.982822  L 252.61287 114.337731  L 256.66726 135.757367  L 260.72165 130.402458  L 264.77604 130.402458  L 268.83043 114.337731  L 272.88482 141.112277  L 276.93921 141.112277  L 280.9936 103.627912  L 285.04799 141.112277  L 289.10238 146.467186  L 293.15677 130.402458  L 297.21116 157.177004  L 301.26555 135.757367  L 305.31994 114.337731  L 309.37433 157.177004  L 313.42872 82.208276  L 317.48311 125.047549  L 321.5375 157.177004  L 325.59189 141.112277  L 329.64628 119.69264  L 333.70067 125.047549  L 337.75506 103.627912  L 341.80945 167.886823  L 345.86384 141.112277  L 349.91823 119.69264  L 353.97262 146.467186  L 358.02701 125.047549  L 362.0814 135.757367  L 366.13579 173.241732  L 370.19018 135.757367  L 374.24457 130.402458  L 378.29896 103.627912  L 382.35335 125.047549  L 386.40774 98.273003  L 390.46213 98.273003  L 394.51652 135.757367  L 398.57091 130.402458  L 402.6253 119.69264  L 406.67969 119.69264  L 410.73408 167.886823  L 414.78847 141.112277  L 418.84286 151.822095  L 422.89725 226.790824  L 426.95164 226.790824  L 431.00603 226.790824  L 435.06042 226.790824  "
           clip-path="url(#p81e73bdf0f)"
           style="fill: none; stroke: #668080; stroke-linecap: square"
           id="path440" />
      </g>
      <g
         id="line2d_17">
        <path
           d="M 114.76361 226.790824  L 118.818 226.790824  L 122.87239 226.790824  L 126.92678 226.790824  L 130.98117 226.790824  L 135.03556 226.790824  L 139.08995 226.790824  L 143.14434 226.790824  L 147.19873 114.874073  L 151.25312 173.497133  L 155.30751 82.897859  L 159.3619 120.203442  L 163.41629 146.850287  L 167.47068 120.203442  L 171.52507 162.838395  L 175.57946 141.520918  L 179.63385 120.203442  L 183.68824 141.520918  L 187.74263 125.532811  L 191.79702 146.850287  L 195.85141 168.167764  L 199.9058 130.86218  L 203.96019 120.203442  L 208.01458 125.532811  L 212.06897 125.532811  L 216.12336 109.544704  L 220.17775 24.274799  L 224.23214 130.86218  L 228.28653 109.544704  L 232.34092 136.191549  L 236.39531 141.520918  L 240.4497 120.203442  L 244.50409 114.874073  L 248.55848 114.874073  L 252.61287 152.179657  L 256.66726 152.179657  L 260.72165 125.532811  L 264.77604 109.544704  L 268.83043 120.203442  L 272.88482 141.520918  L 276.93921 162.838395  L 280.9936 109.544704  L 285.04799 130.86218  L 289.10238 141.520918  L 293.15677 125.532811  L 297.21116 146.850287  L 301.26555 109.544704  L 305.31994 120.203442  L 309.37433 157.509026  L 313.42872 130.86218  L 317.48311 109.544704  L 321.5375 130.86218  L 325.59189 93.556597  L 329.64628 141.520918  L 333.70067 141.520918  L 337.75506 125.532811  L 341.80945 136.191549  L 345.86384 98.885966  L 349.91823 61.580382  L 353.97262 136.191549  L 358.02701 141.520918  L 362.0814 136.191549  L 366.13579 93.556597  L 370.19018 125.532811  L 374.24457 125.532811  L 378.29896 136.191549  L 382.35335 141.520918  L 386.40774 152.179657  L 390.46213 152.179657  L 394.51652 136.191549  L 398.57091 114.874073  L 402.6253 109.544704  L 406.67969 141.520918  L 410.73408 120.203442  L 414.78847 152.179657  L 418.84286 157.509026  L 422.89725 226.790824  L 426.95164 226.790824  L 431.00603 226.790824  L 435.06042 226.790824  "
           clip-path="url(#p81e73bdf0f)"
           style="fill: none; stroke: #808080; stroke-linecap: square"
           id="path443" />
      </g>
      <g
         id="line2d_18">
        <path
           d="M 114.76361 226.790824  L 118.818 226.790824  L 122.87239 226.790824  L 126.92678 226.790824  L 130.98117 226.790824  L 135.03556 226.790824  L 139.08995 226.790824  L 143.14434 226.790824  L 147.19873 134.950463  L 151.25312 113.340967  L 155.30751 102.536219  L 159.3619 134.950463  L 163.41629 145.755212  L 167.47068 124.145715  L 171.52507 124.145715  L 175.57946 134.950463  L 179.63385 145.755212  L 183.68824 167.364708  L 187.74263 124.145715  L 191.79702 124.145715  L 195.85141 140.352838  L 199.9058 107.938593  L 203.96019 134.950463  L 208.01458 124.145715  L 212.06897 124.145715  L 216.12336 80.926722  L 220.17775 151.157586  L 224.23214 124.145715  L 228.28653 172.767082  L 232.34092 140.352838  L 236.39531 118.743341  L 240.4497 156.55996  L 244.50409 151.157586  L 248.55848 118.743341  L 252.61287 134.950463  L 256.66726 113.340967  L 260.72165 151.157586  L 264.77604 167.364708  L 268.83043 97.133844  L 272.88482 129.548089  L 276.93921 124.145715  L 280.9936 145.755212  L 285.04799 140.352838  L 289.10238 102.536219  L 293.15677 118.743341  L 297.21116 113.340967  L 301.26555 113.340967  L 305.31994 118.743341  L 309.37433 107.938593  L 313.42872 118.743341  L 317.48311 145.755212  L 321.5375 151.157586  L 325.59189 167.364708  L 329.64628 124.145715  L 333.70067 151.157586  L 337.75506 145.755212  L 341.80945 97.133844  L 345.86384 151.157586  L 349.91823 145.755212  L 353.97262 107.938593  L 358.02701 129.548089  L 362.0814 102.536219  L 366.13579 124.145715  L 370.19018 161.962334  L 374.24457 118.743341  L 378.29896 91.73147  L 382.35335 118.743341  L 386.40774 124.145715  L 390.46213 43.110103  L 394.51652 113.340967  L 398.57091 151.157586  L 402.6253 113.340967  L 406.67969 145.755212  L 410.73408 118.743341  L 414.78847 134.950463  L 418.84286 118.743341  L 422.89725 226.790824  L 426.95164 226.790824  L 431.00603 226.790824  L 435.06042 226.790824  "
           clip-path="url(#p81e73bdf0f)"
           style="fill: none; stroke: #998080; stroke-linecap: square"
           id="path446" />
      </g>
      <g
         id="line2d_19">
        <path
           d="M 114.76361 226.790824  L 118.818 226.790824  L 122.87239 226.790824  L 126.92678 226.790824  L 130.98117 226.790824  L 135.03556 226.790824  L 139.08995 226.790824  L 143.14434 226.790824  L 147.19873 116.366296  L 151.25312 153.174472  L 155.30751 121.624607  L 159.3619 126.882918  L 163.41629 142.65785  L 167.47068 142.65785  L 171.52507 132.141229  L 175.57946 137.39954  L 179.63385 116.366296  L 183.68824 121.624607  L 187.74263 105.849675  L 191.79702 147.916161  L 195.85141 137.39954  L 199.9058 116.366296  L 203.96019 137.39954  L 208.01458 153.174472  L 212.06897 147.916161  L 216.12336 121.624607  L 220.17775 126.882918  L 224.23214 126.882918  L 228.28653 105.849675  L 232.34092 121.624607  L 236.39531 121.624607  L 240.4497 142.65785  L 244.50409 137.39954  L 248.55848 142.65785  L 252.61287 100.591364  L 256.66726 116.366296  L 260.72165 174.207715  L 264.77604 142.65785  L 268.83043 126.882918  L 272.88482 126.882918  L 276.93921 132.141229  L 280.9936 142.65785  L 285.04799 95.333053  L 289.10238 100.591364  L 293.15677 153.174472  L 297.21116 90.074742  L 301.26555 147.916161  L 305.31994 79.558121  L 309.37433 137.39954  L 313.42872 132.141229  L 317.48311 137.39954  L 321.5375 58.524877  L 325.59189 132.141229  L 329.64628 121.624607  L 333.70067 147.916161  L 337.75506 137.39954  L 341.80945 121.624607  L 345.86384 147.916161  L 349.91823 137.39954  L 353.97262 163.691094  L 358.02701 126.882918  L 362.0814 105.849675  L 366.13579 111.107986  L 370.19018 137.39954  L 374.24457 69.041499  L 378.29896 137.39954  L 382.35335 147.916161  L 386.40774 121.624607  L 390.46213 153.174472  L 394.51652 142.65785  L 398.57091 147.916161  L 402.6253 142.65785  L 406.67969 79.558121  L 410.73408 90.074742  L 414.78847 126.882918  L 418.84286 168.949405  L 422.89725 226.790824  L 426.95164 226.790824  L 431.00603 226.790824  L 435.06042 226.790824  "
           clip-path="url(#p81e73bdf0f)"
           style="fill: none; stroke: #b28080; stroke-linecap: square"
           id="path449" />
      </g>
      <g
         id="line2d_20">
        <path
           d="M 114.76361 226.790824  L 118.818 226.790824  L 122.87239 226.790824  L 126.92678 226.790824  L 130.98117 226.790824  L 135.03556 226.790824  L 139.08995 226.790824  L 143.14434 226.790824  L 147.19873 96.819651  L 151.25312 123.896979  L 155.30751 123.896979  L 159.3619 91.404186  L 163.41629 96.819651  L 167.47068 129.312444  L 171.52507 150.974307  L 175.57946 113.066048  L 179.63385 134.72791  L 183.68824 140.143375  L 187.74263 134.72791  L 191.79702 96.819651  L 195.85141 118.481513  L 199.9058 85.98872  L 203.96019 172.636169  L 208.01458 107.650582  L 212.06897 150.974307  L 216.12336 156.389772  L 220.17775 107.650582  L 224.23214 123.896979  L 228.28653 134.72791  L 232.34092 118.481513  L 236.39531 140.143375  L 240.4497 156.389772  L 244.50409 118.481513  L 248.55848 129.312444  L 252.61287 140.143375  L 256.66726 178.051634  L 260.72165 129.312444  L 264.77604 129.312444  L 268.83043 156.389772  L 272.88482 69.742324  L 276.93921 161.805238  L 280.9936 129.312444  L 285.04799 118.481513  L 289.10238 113.066048  L 293.15677 134.72791  L 297.21116 113.066048  L 301.26555 156.389772  L 305.31994 134.72791  L 309.37433 107.650582  L 313.42872 113.066048  L 317.48311 80.573255  L 321.5375 102.235117  L 325.59189 123.896979  L 329.64628 118.481513  L 333.70067 134.72791  L 337.75506 172.636169  L 341.80945 129.312444  L 345.86384 134.72791  L 349.91823 140.143375  L 353.97262 102.235117  L 358.02701 134.72791  L 362.0814 156.389772  L 366.13579 96.819651  L 370.19018 123.896979  L 374.24457 140.143375  L 378.29896 123.896979  L 382.35335 118.481513  L 386.40774 102.235117  L 390.46213 167.220703  L 394.51652 96.819651  L 398.57091 145.558841  L 402.6253 123.896979  L 406.67969 134.72791  L 410.73408 172.636169  L 414.78847 156.389772  L 418.84286 145.558841  L 422.89725 226.790824  L 426.95164 226.790824  L 431.00603 226.790824  L 435.06042 226.790824  "
           clip-path="url(#p81e73bdf0f)"
           style="fill: none; stroke: #cc8080; stroke-linecap: square"
           id="path452" />
      </g>
      <g
         id="line2d_21">
        <path
           d="M 114.76361 226.790824  L 118.818 226.790824  L 122.87239 226.790824  L 126.92678 226.790824  L 130.98117 226.790824  L 135.03556 226.790824  L 139.08995 226.790824  L 143.14434 226.790824  L 147.19873 135.171943  L 151.25312 124.393252  L 155.30751 135.171943  L 159.3619 135.171943  L 163.41629 140.561289  L 167.47068 129.782597  L 171.52507 129.782597  L 175.57946 145.950635  L 179.63385 97.446522  L 183.68824 129.782597  L 187.74263 145.950635  L 191.79702 102.835868  L 195.85141 140.561289  L 199.9058 140.561289  L 203.96019 135.171943  L 208.01458 108.225214  L 212.06897 178.286711  L 216.12336 108.225214  L 220.17775 172.897365  L 224.23214 108.225214  L 228.28653 97.446522  L 232.34092 140.561289  L 236.39531 167.508019  L 240.4497 151.339981  L 244.50409 97.446522  L 248.55848 145.950635  L 252.61287 145.950635  L 256.66726 178.286711  L 260.72165 119.003906  L 264.77604 113.61456  L 268.83043 97.446522  L 272.88482 194.454748  L 276.93921 135.171943  L 280.9936 140.561289  L 285.04799 145.950635  L 289.10238 119.003906  L 293.15677 108.225214  L 297.21116 92.057176  L 301.26555 124.393252  L 305.31994 97.446522  L 309.37433 92.057176  L 313.42872 97.446522  L 317.48311 135.171943  L 321.5375 92.057176  L 325.59189 119.003906  L 329.64628 151.339981  L 333.70067 129.782597  L 337.75506 145.950635  L 341.80945 129.782597  L 345.86384 129.782597  L 349.91823 156.729327  L 353.97262 140.561289  L 358.02701 129.782597  L 362.0814 129.782597  L 366.13579 75.889138  L 370.19018 113.61456  L 374.24457 135.171943  L 378.29896 108.225214  L 382.35335 113.61456  L 386.40774 151.339981  L 390.46213 92.057176  L 394.51652 102.835868  L 398.57091 129.782597  L 402.6253 113.61456  L 406.67969 129.782597  L 410.73408 167.508019  L 414.78847 135.171943  L 418.84286 113.61456  L 422.89725 226.790824  L 426.95164 226.790824  L 431.00603 226.790824  L 435.06042 226.790824  "
           clip-path="url(#p81e73bdf0f)"
           style="fill: none; stroke: #e68080; stroke-linecap: square"
           id="path455" />
      </g>
      <g
         id="line2d_22">
        <path
           d="M 114.76361 226.790824  L 118.818 226.790824  L 122.87239 226.790824  L 126.92678 226.790824  L 130.98117 226.790824  L 135.03556 226.790824  L 139.08995 226.790824  L 143.14434 226.790824  L 147.19873 116.839544  L 151.25312 138.293452  L 155.30751 113.487371  L 159.3619 124.214325  L 163.41629 144.327364  L 167.47068 122.873456  L 171.52507 135.611714  L 175.57946 126.896064  L 179.63385 124.214325  L 183.68824 142.986495  L 187.74263 124.214325  L 191.79702 118.180414  L 195.85141 140.304756  L 199.9058 111.476067  L 203.96019 133.60041  L 208.01458 128.907368  L 212.06897 142.986495  L 216.12336 113.487371  L 220.17775 118.850848  L 224.23214 127.566498  L 228.28653 120.191717  L 232.34092 128.236933  L 236.39531 134.270845  L 240.4497 133.60041  L 244.50409 119.521283  L 248.55848 127.566498  L 252.61287 132.929975  L 256.66726 146.338668  L 260.72165 139.634322  L 264.77604 142.986495  L 268.83043 120.862152  L 272.88482 133.60041  L 276.93921 139.634322  L 280.9936 120.862152  L 285.04799 129.577802  L 289.10238 120.191717  L 293.15677 126.896064  L 297.21116 126.896064  L 301.26555 132.929975  L 305.31994 114.157806  L 309.37433 127.566498  L 313.42872 109.464763  L 317.48311 124.88476  L 321.5375 115.498675  L 325.59189 130.918672  L 329.64628 128.236933  L 333.70067 136.952583  L 337.75506 134.941279  L 341.80945 124.214325  L 345.86384 126.896064  L 349.91823 126.225629  L 353.97262 135.611714  L 358.02701 137.623018  L 362.0814 126.896064  L 366.13579 122.873456  L 370.19018 134.270845  L 374.24457 118.180414  L 378.29896 117.509979  L 382.35335 129.577802  L 386.40774 124.214325  L 390.46213 110.135198  L 394.51652 125.555195  L 398.57091 139.634322  L 402.6253 120.191717  L 406.67969 128.236933  L 410.73408 138.963887  L 414.78847 137.623018  L 418.84286 144.327364  L 422.89725 226.790824  L 426.95164 226.790824  L 431.00603 226.790824  L 435.06042 226.790824  "
           clip-path="url(#p81e73bdf0f)"
           style="fill: none; stroke: #000000; stroke-width: 2; stroke-linecap: square"
           id="path458" />
      </g>
      <g
         id="patch_3">
        <path
           d="M 68.138125 227.461258  L 68.138125 24.99  "
           style="fill: none; stroke: #000000; stroke-linejoin: miter; stroke-linecap: square"
           id="path461" />
      </g>
      <g
         id="patch_4">
        <path
           d="M 72.192515 233.49517  L 477.631515 233.49517  "
           style="fill: none; stroke: #000000; stroke-linejoin: miter; stroke-linecap: square"
           id="path464" />
      </g>
      <g
         id="text_16">
        <!-- Age Distribution by Blood Group -->
        <g
           transform="translate(160.633265 18.99) scale(0.16 -0.16)"
           id="g543">
          <defs
             id="defs479">
            <path
               id="Helvetica-20"
               transform="scale(0.015625)" />
            <path
               id="Helvetica-44"
               d="M 2250 531  Q 2566 531 2769 597  Q 3131 719 3363 1066  Q 3547 1344 3628 1778  Q 3675 2038 3675 2259  Q 3675 3113 3336 3584  Q 2997 4056 2244 4056  L 1141 4056  L 1141 531  L 2250 531  z M 516 4591  L 2375 4591  Q 3322 4591 3844 3919  Q 4309 3313 4309 2366  Q 4309 1634 4034 1044  Q 3550 0 2369 0  L 516 0  L 516 4591  z "
               transform="scale(0.015625)" />
            <path
               id="Helvetica-69"
               d="M 413 3331  L 984 3331  L 984 0  L 413 0  L 413 3331  z M 413 4591  L 984 4591  L 984 3953  L 413 3953  L 413 4591  z "
               transform="scale(0.015625)" />
            <path
               id="Helvetica-73"
               d="M 747 1050  Q 772 769 888 619  Q 1100 347 1625 347  Q 1938 347 2175 483  Q 2413 619 2413 903  Q 2413 1119 2222 1231  Q 2100 1300 1741 1391  L 1294 1503  Q 866 1609 663 1741  Q 300 1969 300 2372  Q 300 2847 642 3140  Q 984 3434 1563 3434  Q 2319 3434 2653 2991  Q 2863 2709 2856 2384  L 2325 2384  Q 2309 2575 2191 2731  Q 1997 2953 1519 2953  Q 1200 2953 1036 2831  Q 872 2709 872 2509  Q 872 2291 1088 2159  Q 1213 2081 1456 2022  L 1828 1931  Q 2434 1784 2641 1647  Q 2969 1431 2969 969  Q 2969 522 2630 197  Q 2291 -128 1597 -128  Q 850 -128 539 211  Q 228 550 206 1050  L 747 1050  z M 1578 3428  L 1578 3428  z "
               transform="scale(0.015625)" />
            <path
               id="Helvetica-74"
               d="M 525 4281  L 1094 4281  L 1094 3347  L 1628 3347  L 1628 2888  L 1094 2888  L 1094 703  Q 1094 528 1213 469  Q 1278 434 1431 434  Q 1472 434 1519 436  Q 1566 438 1628 444  L 1628 0  Q 1531 -28 1426 -40  Q 1322 -53 1200 -53  Q 806 -53 665 148  Q 525 350 525 672  L 525 2888  L 72 2888  L 72 3347  L 525 3347  L 525 4281  z "
               transform="scale(0.015625)" />
            <path
               id="Helvetica-62"
               d="M 369 4606  L 916 4606  L 916 2941  Q 1100 3181 1356 3307  Q 1613 3434 1913 3434  Q 2538 3434 2927 3004  Q 3316 2575 3316 1738  Q 3316 944 2931 419  Q 2547 -106 1866 -106  Q 1484 -106 1222 78  Q 1066 188 888 428  L 888 0  L 369 0  L 369 4606  z M 1831 391  Q 2288 391 2514 753  Q 2741 1116 2741 1709  Q 2741 2238 2514 2584  Q 2288 2931 1847 2931  Q 1463 2931 1173 2647  Q 884 2363 884 1709  Q 884 1238 1003 944  Q 1225 391 1831 391  z "
               transform="scale(0.015625)" />
            <path
               id="Helvetica-6f"
               d="M 1741 363  Q 2300 363 2508 786  Q 2716 1209 2716 1728  Q 2716 2197 2566 2491  Q 2328 2953 1747 2953  Q 1231 2953 997 2559  Q 763 2166 763 1609  Q 763 1075 997 719  Q 1231 363 1741 363  z M 1763 3444  Q 2409 3444 2856 3012  Q 3303 2581 3303 1744  Q 3303 934 2909 406  Q 2516 -122 1688 -122  Q 997 -122 590 345  Q 184 813 184 1600  Q 184 2444 612 2944  Q 1041 3444 1763 3444  z M 1744 3428  L 1744 3428  z "
               transform="scale(0.015625)" />
            <path
               id="Helvetica-42"
               d="M 2213 2650  Q 2606 2650 2825 2759  Q 3169 2931 3169 3378  Q 3169 3828 2803 3984  Q 2597 4072 2191 4072  L 1081 4072  L 1081 2650  L 2213 2650  z M 2422 531  Q 2994 531 3238 863  Q 3391 1072 3391 1369  Q 3391 1869 2944 2050  Q 2706 2147 2316 2147  L 1081 2147  L 1081 531  L 2422 531  z M 472 4591  L 2444 4591  Q 3250 4591 3591 4109  Q 3791 3825 3791 3453  Q 3791 3019 3544 2741  Q 3416 2594 3175 2472  Q 3528 2338 3703 2169  Q 4013 1869 4013 1341  Q 4013 897 3734 538  Q 3319 0 2413 0  L 472 0  L 472 4591  z "
               transform="scale(0.015625)" />
            <path
               id="Helvetica-6c"
               d="M 428 4591  L 991 4591  L 991 0  L 428 0  L 428 4591  z "
               transform="scale(0.015625)" />
            <path
               id="Helvetica-64"
               d="M 769 1634  Q 769 1097 997 734  Q 1225 372 1728 372  Q 2119 372 2370 708  Q 2622 1044 2622 1672  Q 2622 2306 2362 2611  Q 2103 2916 1722 2916  Q 1297 2916 1033 2591  Q 769 2266 769 1634  z M 1616 3406  Q 2000 3406 2259 3244  Q 2409 3150 2600 2916  L 2600 4606  L 3141 4606  L 3141 0  L 2634 0  L 2634 466  Q 2438 156 2169 18  Q 1900 -119 1553 -119  Q 994 -119 584 351  Q 175 822 175 1603  Q 175 2334 548 2870  Q 922 3406 1616 3406  z "
               transform="scale(0.015625)" />
            <path
               id="Helvetica-47"
               d="M 2472 4709  Q 3119 4709 3591 4459  Q 4275 4100 4428 3200  L 3813 3200  Q 3700 3703 3347 3933  Q 2994 4163 2456 4163  Q 1819 4163 1383 3684  Q 947 3206 947 2259  Q 947 1441 1306 927  Q 1666 413 2478 413  Q 3100 413 3508 773  Q 3916 1134 3925 1941  L 2488 1941  L 2488 2456  L 4503 2456  L 4503 0  L 4103 0  L 3953 591  Q 3638 244 3394 109  Q 2984 -122 2353 -122  Q 1538 -122 950 406  Q 309 1069 309 2225  Q 309 3378 934 4059  Q 1528 4709 2472 4709  z M 2369 4716  L 2369 4716  z "
               transform="scale(0.015625)" />
            <path
               id="Helvetica-70"
               d="M 1825 378  Q 2219 378 2480 708  Q 2741 1038 2741 1694  Q 2741 2094 2625 2381  Q 2406 2934 1825 2934  Q 1241 2934 1025 2350  Q 909 2038 909 1556  Q 909 1169 1025 897  Q 1244 378 1825 378  z M 369 3331  L 916 3331  L 916 2888  Q 1084 3116 1284 3241  Q 1569 3428 1953 3428  Q 2522 3428 2919 2992  Q 3316 2556 3316 1747  Q 3316 653 2744 184  Q 2381 -113 1900 -113  Q 1522 -113 1266 53  Q 1116 147 931 375  L 931 -1334  L 369 -1334  L 369 3331  z "
               transform="scale(0.015625)" />
          </defs>
          <use
             xlink:href="#Helvetica-41"
             id="use481" />
          <use
             xlink:href="#Helvetica-67"
             x="66.699219"
             id="use483" />
          <use
             xlink:href="#Helvetica-65"
             x="122.314453"
             id="use485" />
          <use
             xlink:href="#Helvetica-20"
             x="177.929688"
             id="use487" />
          <use
             xlink:href="#Helvetica-44"
             x="205.712891"
             id="use489" />
          <use
             xlink:href="#Helvetica-69"
             x="277.929688"
             id="use491" />
          <use
             xlink:href="#Helvetica-73"
             x="300.146484"
             id="use493" />
          <use
             xlink:href="#Helvetica-74"
             x="350.146484"
             id="use495" />
          <use
             xlink:href="#Helvetica-72"
             x="377.929688"
             id="use497" />
          <use
             xlink:href="#Helvetica-69"
             x="411.230469"
             id="use499" />
          <use
             xlink:href="#Helvetica-62"
             x="433.447266"
             id="use501" />
          <use
             xlink:href="#Helvetica-75"
             x="489.0625"
             id="use503" />
          <use
             xlink:href="#Helvetica-74"
             x="544.677734"
             id="use505" />
          <use
             xlink:href="#Helvetica-69"
             x="572.460938"
             id="use507" />
          <use
             xlink:href="#Helvetica-6f"
             x="594.677734"
             id="use509" />
          <use
             xlink:href="#Helvetica-6e"
             x="650.292969"
             id="use511" />
          <use
             xlink:href="#Helvetica-20"
             x="705.908203"
             id="use513" />
          <use
             xlink:href="#Helvetica-62"
             x="733.691406"
             id="use515" />
          <use
             xlink:href="#Helvetica-79"
             x="789.306641"
             id="use517" />
          <use
             xlink:href="#Helvetica-20"
             x="839.306641"
             id="use519" />
          <use
             xlink:href="#Helvetica-42"
             x="867.089844"
             id="use521" />
          <use
             xlink:href="#Helvetica-6c"
             x="933.789062"
             id="use523" />
          <use
             xlink:href="#Helvetica-6f"
             x="956.005859"
             id="use525" />
          <use
             xlink:href="#Helvetica-6f"
             x="1011.621094"
             id="use527" />
          <use
             xlink:href="#Helvetica-64"
             x="1067.236328"
             id="use529" />
          <use
             xlink:href="#Helvetica-20"
             x="1122.851562"
             id="use531" />
          <use
             xlink:href="#Helvetica-47"
             x="1150.634766"
             id="use533" />
          <use
             xlink:href="#Helvetica-72"
             x="1228.417969"
             id="use535" />
          <use
             xlink:href="#Helvetica-6f"
             x="1261.71875"
             id="use537" />
          <use
             xlink:href="#Helvetica-75"
             x="1317.333984"
             id="use539" />
          <use
             xlink:href="#Helvetica-70"
             x="1372.949219"
             id="use541" />
        </g>
      </g>
      <g
         id="legend_1">
        <g
           id="text_17">
          <!-- Blood Group -->
          <g
             transform="translate(81.192515 41.35875) scale(0.1 -0.1)"
             id="g568">
            <use
               xlink:href="#Helvetica-42"
               id="use546" />
            <use
               xlink:href="#Helvetica-6c"
               x="66.699219"
               id="use548" />
            <use
               xlink:href="#Helvetica-6f"
               x="88.916016"
               id="use550" />
            <use
               xlink:href="#Helvetica-6f"
               x="144.53125"
               id="use552" />
            <use
               xlink:href="#Helvetica-64"
               x="200.146484"
               id="use554" />
            <use
               xlink:href="#Helvetica-20"
               x="255.761719"
               id="use556" />
            <use
               xlink:href="#Helvetica-47"
               x="283.544922"
               id="use558" />
            <use
               xlink:href="#Helvetica-72"
               x="361.328125"
               id="use560" />
            <use
               xlink:href="#Helvetica-6f"
               x="394.628906"
               id="use562" />
            <use
               xlink:href="#Helvetica-75"
               x="450.244141"
               id="use564" />
            <use
               xlink:href="#Helvetica-70"
               x="505.859375"
               id="use566" />
          </g>
        </g>
        <g
           id="line2d_23">
          <path
             d="M 85.673765 52.116563  L 95.673765 52.116563  L 105.673765 52.116563  "
             style="fill: none; stroke: #338080; stroke-linecap: square"
             id="path571" />
        </g>
        <g
           id="text_18">
          <!-- O- -->
          <g
             transform="translate(113.673765 55.616563) scale(0.1 -0.1)"
             id="g582">
            <defs
               id="defs576">
              <path
                 id="Helvetica-4f"
                 d="M 2469 4716  Q 3684 4716 4269 3934  Q 4725 3325 4725 2375  Q 4725 1347 4203 666  Q 3591 -134 2456 -134  Q 1397 -134 791 566  Q 250 1241 250 2272  Q 250 3203 713 3866  Q 1306 4716 2469 4716  z M 2531 422  Q 3353 422 3720 1011  Q 4088 1600 4088 2366  Q 4088 3175 3664 3669  Q 3241 4163 2506 4163  Q 1794 4163 1344 3673  Q 894 3184 894 2231  Q 894 1469 1280 945  Q 1666 422 2531 422  z M 2488 4716  L 2488 4716  z "
                 transform="scale(0.015625)" />
              <path
                 id="Helvetica-2d"
                 d="M 266 2072  L 1834 2072  L 1834 1494  L 266 1494  L 266 2072  z "
                 transform="scale(0.015625)" />
            </defs>
            <use
               xlink:href="#Helvetica-4f"
               id="use578" />
            <use
               xlink:href="#Helvetica-2d"
               x="77.783203"
               id="use580" />
          </g>
        </g>
        <g
           id="line2d_24">
          <path
             d="M 85.673765 66.374375  L 95.673765 66.374375  L 105.673765 66.374375  "
             style="fill: none; stroke: #4d8080; stroke-linecap: square"
             id="path585" />
        </g>
        <g
           id="text_19">
          <!-- O+ -->
          <g
             transform="translate(113.673765 69.874375) scale(0.1 -0.1)"
             id="g595">
            <defs
               id="defs589">
              <path
                 id="Helvetica-2b"
                 d="M 288 1369  L 288 1894  L 1650 1894  L 1650 3266  L 2184 3266  L 2184 1894  L 3547 1894  L 3547 1369  L 2184 1369  L 2184 0  L 1650 0  L 1650 1369  L 288 1369  z "
                 transform="scale(0.015625)" />
            </defs>
            <use
               xlink:href="#Helvetica-4f"
               id="use591" />
            <use
               xlink:href="#Helvetica-2b"
               x="77.783203"
               id="use593" />
          </g>
        </g>
        <g
           id="line2d_25">
          <path
             d="M 85.673765 80.632188  L 95.673765 80.632188  L 105.673765 80.632188  "
             style="fill: none; stroke: #668080; stroke-linecap: square"
             id="path598" />
        </g>
        <g
           id="text_20">
          <!-- B- -->
          <g
             transform="translate(113.673765 84.132188) scale(0.1 -0.1)"
             id="g605">
            <use
               xlink:href="#Helvetica-42"
               id="use601" />
            <use
               xlink:href="#Helvetica-2d"
               x="66.699219"
               id="use603" />
          </g>
        </g>
        <g
           id="line2d_26">
          <path
             d="M 85.673765 94.89  L 95.673765 94.89  L 105.673765 94.89  "
             style="fill: none; stroke: #808080; stroke-linecap: square"
             id="path608" />
        </g>
        <g
           id="text_21">
          <!-- AB+ -->
          <g
             transform="translate(113.673765 98.39) scale(0.1 -0.1)"
             id="g617">
            <use
               xlink:href="#Helvetica-41"
               id="use611" />
            <use
               xlink:href="#Helvetica-42"
               x="66.699219"
               id="use613" />
            <use
               xlink:href="#Helvetica-2b"
               x="133.398438"
               id="use615" />
          </g>
        </g>
        <g
           id="line2d_27">
          <path
             d="M 85.673765 109.147813  L 95.673765 109.147813  L 105.673765 109.147813  "
             style="fill: none; stroke: #998080; stroke-linecap: square"
             id="path620" />
        </g>
        <g
           id="text_22">
          <!-- A+ -->
          <g
             transform="translate(113.673765 112.647813) scale(0.1 -0.1)"
             id="g627">
            <use
               xlink:href="#Helvetica-41"
               id="use623" />
            <use
               xlink:href="#Helvetica-2b"
               x="66.699219"
               id="use625" />
          </g>
        </g>
        <g
           id="line2d_28">
          <path
             d="M 85.673765 123.405625  L 95.673765 123.405625  L 105.673765 123.405625  "
             style="fill: none; stroke: #b28080; stroke-linecap: square"
             id="path630" />
        </g>
        <g
           id="text_23">
          <!-- AB- -->
          <g
             transform="translate(113.673765 126.905625) scale(0.1 -0.1)"
             id="g639">
            <use
               xlink:href="#Helvetica-41"
               id="use633" />
            <use
               xlink:href="#Helvetica-42"
               x="66.699219"
               id="use635" />
            <use
               xlink:href="#Helvetica-2d"
               x="133.398438"
               id="use637" />
          </g>
        </g>
        <g
           id="line2d_29">
          <path
             d="M 85.673765 137.663438  L 95.673765 137.663438  L 105.673765 137.663438  "
             style="fill: none; stroke: #cc8080; stroke-linecap: square"
             id="path642" />
        </g>
        <g
           id="text_24">
          <!-- A- -->
          <g
             transform="translate(113.673765 141.163438) scale(0.1 -0.1)"
             id="g649">
            <use
               xlink:href="#Helvetica-41"
               id="use645" />
            <use
               xlink:href="#Helvetica-2d"
               x="66.699219"
               id="use647" />
          </g>
        </g>
        <g
           id="line2d_30">
          <path
             d="M 85.673765 151.92125  L 95.673765 151.92125  L 105.673765 151.92125  "
             style="fill: none; stroke: #e68080; stroke-linecap: square"
             id="path652" />
        </g>
        <g
           id="text_25">
          <!-- B+ -->
          <g
             transform="translate(113.673765 155.42125) scale(0.1 -0.1)"
             id="g659">
            <use
               xlink:href="#Helvetica-42"
               id="use655" />
            <use
               xlink:href="#Helvetica-2b"
               x="66.699219"
               id="use657" />
          </g>
        </g>
        <g
           id="line2d_31">
          <path
             d="M 85.673765 166.179063  L 95.673765 166.179063  L 105.673765 166.179063  "
             style="fill: none; stroke: #000000; stroke-width: 2; stroke-linecap: square"
             id="path662" />
        </g>
        <g
           id="text_26">
          <!-- All -->
          <g
             transform="translate(113.673765 169.679063) scale(0.1 -0.1)"
             id="g671">
            <use
               xlink:href="#Helvetica-41"
               id="use665" />
            <use
               xlink:href="#Helvetica-6c"
               x="66.699219"
               id="use667" />
            <use
               xlink:href="#Helvetica-6c"
               x="88.916016"
               id="use669" />
          </g>
        </g>
      </g>
    </g>
  </g>
  <defs
     id="defs680">
    <clipPath
       id="p81e73bdf0f">
      <rect
         x="72.192515"
         y="24.99"
         width="405.439"
         height="202.471258"
         id="rect677" />
    </clipPath>
  </defs>
</svg>
