<?xml version="1.0" encoding="utf-8" standalone="no"?>
<!DOCTYPE svg PUBLIC "-//W3C//DTD SVG 1.1//EN"
  "http://www.w3.org/Graphics/SVG/1.1/DTD/svg11.dtd">
<svg xmlns:xlink="http://www.w3.org/1999/xlink" width="496.774784pt" height="279.792838pt" viewBox="0 0 496.774784 279.792838" xmlns="http://www.w3.org/2000/svg" version="1.1">
 <metadata>
  <rdf:RDF xmlns:dc="http://purl.org/dc/elements/1.1/" xmlns:cc="http://creativecommons.org/ns#" xmlns:rdf="http://www.w3.org/1999/02/22-rdf-syntax-ns#">
   <cc:Work>
    <dc:type rdf:resource="http://purl.org/dc/dcmitype/StillImage"/>
    <dc:date>2025-04-19T22:02:25.620688</dc:date>
    <dc:format>image/svg+xml</dc:format>
    <dc:creator>
     <cc:Agent>
      <dc:title>Matplotlib v3.9.2, https://matplotlib.org/</dc:title>
     </cc:Agent>
    </dc:creator>
   </cc:Work>
  </rdf:RDF>
 </metadata>
 <defs>
  <style type="text/css">*{stroke-linejoin: round; stroke-linecap: butt}</style>
 </defs>
 <g id="figure_1">
  <g id="patch_1">
   <path d="M 0 279.792838 
L 496.774784 279.792838 
L 496.774784 0 
L 0 0 
z
" style="fill: #ffffff"/>
  </g>
  <g id="axes_1">
   <g id="patch_2">
    <path d="M 52.927815 228.526 
L 477.896815 228.526 
L 477.896815 24.99 
L 52.927815 24.99 
z
" style="fill: #ffffff"/>
   </g>
   <g id="matplotlib.axis_1">
    <g id="xtick_1">
     <g id="line2d_1">
      <defs>
       <path id="m65030aa161" d="M 0 0 
L 0 3.5 
" style="stroke: #000000; stroke-width: 0.8"/>
      </defs>
      <g>
       <use xlink:href="#m65030aa161" x="52.927815" y="233.6144" style="stroke: #000000; stroke-width: 0.8"/>
      </g>
     </g>
     <g id="text_1">
      <!-- 0 -->
      <g transform="translate(49.035159 250.657213) scale(0.14 -0.14)">
       <defs>
        <path id="Helvetica-30" d="M 1731 4475 
Q 2600 4475 2988 3759 
Q 3288 3206 3288 2244 
Q 3288 1331 3016 734 
Q 2622 -122 1728 -122 
Q 922 -122 528 578 
Q 200 1163 200 2147 
Q 200 2909 397 3456 
Q 766 4475 1731 4475 
z
M 1725 391 
Q 2163 391 2422 778 
Q 2681 1166 2681 2222 
Q 2681 2984 2493 3476 
Q 2306 3969 1766 3969 
Q 1269 3969 1039 3501 
Q 809 3034 809 2125 
Q 809 1441 956 1025 
Q 1181 391 1725 391 
z
" transform="scale(0.015625)"/>
       </defs>
       <use xlink:href="#Helvetica-30"/>
      </g>
     </g>
    </g>
    <g id="xtick_2">
     <g id="line2d_2">
      <g>
       <use xlink:href="#m65030aa161" x="137.921615" y="233.6144" style="stroke: #000000; stroke-width: 0.8"/>
      </g>
     </g>
     <g id="text_2">
      <!-- 20 -->
      <g transform="translate(130.136302 250.657213) scale(0.14 -0.14)">
       <defs>
        <path id="Helvetica-32" d="M 200 0 
Q 231 578 439 1006 
Q 647 1434 1250 1784 
L 1850 2131 
Q 2253 2366 2416 2531 
Q 2672 2791 2672 3125 
Q 2672 3516 2437 3745 
Q 2203 3975 1813 3975 
Q 1234 3975 1013 3538 
Q 894 3303 881 2888 
L 309 2888 
Q 319 3472 525 3841 
Q 891 4491 1816 4491 
Q 2584 4491 2939 4075 
Q 3294 3659 3294 3150 
Q 3294 2613 2916 2231 
Q 2697 2009 2131 1694 
L 1703 1456 
Q 1397 1288 1222 1134 
Q 909 863 828 531 
L 3272 531 
L 3272 0 
L 200 0 
z
" transform="scale(0.015625)"/>
       </defs>
       <use xlink:href="#Helvetica-32"/>
       <use xlink:href="#Helvetica-30" x="55.615234"/>
      </g>
     </g>
    </g>
    <g id="xtick_3">
     <g id="line2d_3">
      <g>
       <use xlink:href="#m65030aa161" x="222.915415" y="233.6144" style="stroke: #000000; stroke-width: 0.8"/>
      </g>
     </g>
     <g id="text_3">
      <!-- 40 -->
      <g transform="translate(215.130103 250.657213) scale(0.14 -0.14)">
       <defs>
        <path id="Helvetica-34" d="M 2116 1584 
L 2116 3613 
L 681 1584 
L 2116 1584 
z
M 2125 0 
L 2125 1094 
L 163 1094 
L 163 1644 
L 2213 4488 
L 2688 4488 
L 2688 1584 
L 3347 1584 
L 3347 1094 
L 2688 1094 
L 2688 0 
L 2125 0 
z
" transform="scale(0.015625)"/>
       </defs>
       <use xlink:href="#Helvetica-34"/>
       <use xlink:href="#Helvetica-30" x="55.615234"/>
      </g>
     </g>
    </g>
    <g id="xtick_4">
     <g id="line2d_4">
      <g>
       <use xlink:href="#m65030aa161" x="307.909215" y="233.6144" style="stroke: #000000; stroke-width: 0.8"/>
      </g>
     </g>
     <g id="text_4">
      <!-- 60 -->
      <g transform="translate(300.123903 250.657213) scale(0.14 -0.14)">
       <defs>
        <path id="Helvetica-36" d="M 1872 4494 
Q 2622 4494 2917 4105 
Q 3213 3716 3213 3303 
L 2656 3303 
Q 2606 3569 2497 3719 
Q 2294 4000 1881 4000 
Q 1409 4000 1131 3564 
Q 853 3128 822 2316 
Q 1016 2600 1309 2741 
Q 1578 2866 1909 2866 
Q 2472 2866 2890 2506 
Q 3309 2147 3309 1434 
Q 3309 825 2912 354 
Q 2516 -116 1781 -116 
Q 1153 -116 697 361 
Q 241 838 241 1966 
Q 241 2800 444 3381 
Q 834 4494 1872 4494 
z
M 1831 384 
Q 2275 384 2495 682 
Q 2716 981 2716 1388 
Q 2716 1731 2519 2042 
Q 2322 2353 1803 2353 
Q 1441 2353 1167 2112 
Q 894 1872 894 1388 
Q 894 963 1142 673 
Q 1391 384 1831 384 
z
" transform="scale(0.015625)"/>
       </defs>
       <use xlink:href="#Helvetica-36"/>
       <use xlink:href="#Helvetica-30" x="55.615234"/>
      </g>
     </g>
    </g>
    <g id="xtick_5">
     <g id="line2d_5">
      <g>
       <use xlink:href="#m65030aa161" x="392.903015" y="233.6144" style="stroke: #000000; stroke-width: 0.8"/>
      </g>
     </g>
     <g id="text_5">
      <!-- 80 -->
      <g transform="translate(385.117703 250.657213) scale(0.14 -0.14)">
       <defs>
        <path id="Helvetica-38" d="M 1741 2600 
Q 2113 2600 2322 2808 
Q 2531 3016 2531 3303 
Q 2531 3553 2331 3762 
Q 2131 3972 1722 3972 
Q 1316 3972 1134 3762 
Q 953 3553 953 3272 
Q 953 2956 1187 2778 
Q 1422 2600 1741 2600 
z
M 1775 384 
Q 2166 384 2423 595 
Q 2681 806 2681 1225 
Q 2681 1659 2415 1884 
Q 2150 2109 1734 2109 
Q 1331 2109 1076 1879 
Q 822 1650 822 1244 
Q 822 894 1055 639 
Q 1288 384 1775 384 
z
M 975 2384 
Q 741 2484 609 2619 
Q 363 2869 363 3269 
Q 363 3769 725 4128 
Q 1088 4488 1753 4488 
Q 2397 4488 2762 4148 
Q 3128 3809 3128 3356 
Q 3128 2938 2916 2678 
Q 2797 2531 2547 2391 
Q 2825 2263 2984 2097 
Q 3281 1784 3281 1284 
Q 3281 694 2884 283 
Q 2488 -128 1763 -128 
Q 1109 -128 657 226 
Q 206 581 206 1256 
Q 206 1653 400 1942 
Q 594 2231 975 2384 
z
" transform="scale(0.015625)"/>
       </defs>
       <use xlink:href="#Helvetica-38"/>
       <use xlink:href="#Helvetica-30" x="55.615234"/>
      </g>
     </g>
    </g>
    <g id="xtick_6">
     <g id="line2d_6">
      <g>
       <use xlink:href="#m65030aa161" x="477.896815" y="233.6144" style="stroke: #000000; stroke-width: 0.8"/>
      </g>
     </g>
     <g id="text_6">
      <!-- 100 -->
      <g transform="translate(466.218846 250.657213) scale(0.14 -0.14)">
       <defs>
        <path id="Helvetica-31" d="M 613 3169 
L 613 3600 
Q 1222 3659 1462 3798 
Q 1703 3938 1822 4456 
L 2266 4456 
L 2266 0 
L 1666 0 
L 1666 3169 
L 613 3169 
z
" transform="scale(0.015625)"/>
       </defs>
       <use xlink:href="#Helvetica-31"/>
       <use xlink:href="#Helvetica-30" x="55.615234"/>
       <use xlink:href="#Helvetica-30" x="111.230469"/>
      </g>
     </g>
    </g>
    <g id="text_7">
     <!-- Age -->
     <g transform="translate(251.178565 269.052838) scale(0.16 -0.16)">
      <defs>
       <path id="Helvetica-41" d="M 2844 1881 
L 2147 3909 
L 1406 1881 
L 2844 1881 
z
M 1822 4591 
L 2525 4591 
L 4191 0 
L 3509 0 
L 3044 1375 
L 1228 1375 
L 731 0 
L 94 0 
L 1822 4591 
z
" transform="scale(0.015625)"/>
       <path id="Helvetica-67" d="M 1594 3406 
Q 1988 3406 2281 3213 
Q 2441 3103 2606 2894 
L 2606 3316 
L 3125 3316 
L 3125 272 
Q 3125 -366 2938 -734 
Q 2588 -1416 1616 -1416 
Q 1075 -1416 706 -1173 
Q 338 -931 294 -416 
L 866 -416 
Q 906 -641 1028 -763 
Q 1219 -950 1628 -950 
Q 2275 -950 2475 -494 
Q 2594 -225 2584 466 
Q 2416 209 2178 84 
Q 1941 -41 1550 -41 
Q 1006 -41 598 345 
Q 191 731 191 1622 
Q 191 2463 602 2934 
Q 1013 3406 1594 3406 
z
M 2606 1688 
Q 2606 2309 2350 2609 
Q 2094 2909 1697 2909 
Q 1103 2909 884 2353 
Q 769 2056 769 1575 
Q 769 1009 998 714 
Q 1228 419 1616 419 
Q 2222 419 2469 966 
Q 2606 1275 2606 1688 
z
M 1659 3428 
L 1659 3428 
z
" transform="scale(0.015625)"/>
       <path id="Helvetica-65" d="M 1806 3422 
Q 2163 3422 2497 3255 
Q 2831 3088 3006 2822 
Q 3175 2569 3231 2231 
Q 3281 2000 3281 1494 
L 828 1494 
Q 844 984 1069 676 
Q 1294 369 1766 369 
Q 2206 369 2469 659 
Q 2619 828 2681 1050 
L 3234 1050 
Q 3213 866 3089 639 
Q 2966 413 2813 269 
Q 2556 19 2178 -69 
Q 1975 -119 1719 -119 
Q 1094 -119 659 336 
Q 225 791 225 1609 
Q 225 2416 662 2919 
Q 1100 3422 1806 3422 
z
M 2703 1941 
Q 2669 2306 2544 2525 
Q 2313 2931 1772 2931 
Q 1384 2931 1121 2651 
Q 859 2372 844 1941 
L 2703 1941 
z
M 1753 3428 
L 1753 3428 
z
" transform="scale(0.015625)"/>
      </defs>
      <use xlink:href="#Helvetica-41"/>
      <use xlink:href="#Helvetica-67" x="66.699219"/>
      <use xlink:href="#Helvetica-65" x="122.314453"/>
     </g>
    </g>
   </g>
   <g id="matplotlib.axis_2">
    <g id="ytick_1">
     <g id="line2d_7">
      <defs>
       <path id="m8faf220841" d="M 0 0 
L -3.5 0 
" style="stroke: #000000; stroke-width: 0.8"/>
      </defs>
      <g>
       <use xlink:href="#m8faf220841" x="48.678125" y="228.526" style="stroke: #000000; stroke-width: 0.8"/>
      </g>
     </g>
     <g id="text_8">
      <!-- 0 -->
      <g transform="translate(33.892812 233.547406) scale(0.14 -0.14)">
       <use xlink:href="#Helvetica-30"/>
      </g>
     </g>
    </g>
    <g id="ytick_2">
     <g id="line2d_8">
      <g>
       <use xlink:href="#m8faf220841" x="48.678125" y="177.642" style="stroke: #000000; stroke-width: 0.8"/>
      </g>
     </g>
     <g id="text_9">
      <!-- 10 -->
      <g transform="translate(26.1075 182.663406) scale(0.14 -0.14)">
       <use xlink:href="#Helvetica-31"/>
       <use xlink:href="#Helvetica-30" x="55.615234"/>
      </g>
     </g>
    </g>
    <g id="ytick_3">
     <g id="line2d_9">
      <g>
       <use xlink:href="#m8faf220841" x="48.678125" y="126.758" style="stroke: #000000; stroke-width: 0.8"/>
      </g>
     </g>
     <g id="text_10">
      <!-- 20 -->
      <g transform="translate(26.1075 131.779406) scale(0.14 -0.14)">
       <use xlink:href="#Helvetica-32"/>
       <use xlink:href="#Helvetica-30" x="55.615234"/>
      </g>
     </g>
    </g>
    <g id="ytick_4">
     <g id="line2d_10">
      <g>
       <use xlink:href="#m8faf220841" x="48.678125" y="75.874" style="stroke: #000000; stroke-width: 0.8"/>
      </g>
     </g>
     <g id="text_11">
      <!-- 30 -->
      <g transform="translate(26.1075 80.895406) scale(0.14 -0.14)">
       <defs>
        <path id="Helvetica-33" d="M 1663 -122 
Q 869 -122 511 314 
Q 153 750 153 1375 
L 741 1375 
Q 778 941 903 744 
Q 1122 391 1694 391 
Q 2138 391 2406 628 
Q 2675 866 2675 1241 
Q 2675 1703 2392 1887 
Q 2109 2072 1606 2072 
Q 1550 2072 1492 2070 
Q 1434 2069 1375 2066 
L 1375 2563 
Q 1463 2553 1522 2550 
Q 1581 2547 1650 2547 
Q 1966 2547 2169 2647 
Q 2525 2822 2525 3272 
Q 2525 3606 2287 3787 
Q 2050 3969 1734 3969 
Q 1172 3969 956 3594 
Q 838 3388 822 3006 
L 266 3006 
Q 266 3506 466 3856 
Q 809 4481 1675 4481 
Q 2359 4481 2734 4176 
Q 3109 3872 3109 3294 
Q 3109 2881 2888 2625 
Q 2750 2466 2531 2375 
Q 2884 2278 3082 2001 
Q 3281 1725 3281 1325 
Q 3281 684 2859 281 
Q 2438 -122 1663 -122 
z
" transform="scale(0.015625)"/>
       </defs>
       <use xlink:href="#Helvetica-33"/>
       <use xlink:href="#Helvetica-30" x="55.615234"/>
      </g>
     </g>
    </g>
    <g id="ytick_5">
     <g id="line2d_11">
      <g>
       <use xlink:href="#m8faf220841" x="48.678125" y="24.99" style="stroke: #000000; stroke-width: 0.8"/>
      </g>
     </g>
     <g id="text_12">
      <!-- 40 -->
      <g transform="translate(26.1075 30.011406) scale(0.14 -0.14)">
       <use xlink:href="#Helvetica-34"/>
       <use xlink:href="#Helvetica-30" x="55.615234"/>
      </g>
     </g>
    </g>
    <g id="text_13">
     <!-- Frequency -->
     <g transform="translate(18.6775 164.55175) rotate(-90) scale(0.16 -0.16)">
      <defs>
       <path id="Helvetica-46" d="M 547 4591 
L 3731 4591 
L 3731 4028 
L 1169 4028 
L 1169 2634 
L 3422 2634 
L 3422 2088 
L 1169 2088 
L 1169 0 
L 547 0 
L 547 4591 
z
" transform="scale(0.015625)"/>
       <path id="Helvetica-72" d="M 428 3347 
L 963 3347 
L 963 2769 
Q 1028 2938 1284 3180 
Q 1541 3422 1875 3422 
Q 1891 3422 1928 3419 
Q 1966 3416 2056 3406 
L 2056 2813 
Q 2006 2822 1964 2825 
Q 1922 2828 1872 2828 
Q 1447 2828 1219 2554 
Q 991 2281 991 1925 
L 991 0 
L 428 0 
L 428 3347 
z
" transform="scale(0.015625)"/>
       <path id="Helvetica-71" d="M 775 1628 
Q 775 1194 897 900 
Q 1113 378 1669 378 
Q 2256 378 2478 928 
Q 2600 1231 2600 1703 
Q 2600 2138 2466 2428 
Q 2238 2925 1663 2925 
Q 1297 2925 1036 2608 
Q 775 2291 775 1628 
z
M 1606 3422 
Q 2022 3422 2306 3213 
Q 2463 3100 2606 2881 
L 2606 3347 
L 3141 3347 
L 3141 -1334 
L 2575 -1334 
L 2575 384 
Q 2434 159 2186 26 
Q 1938 -106 1566 -106 
Q 1031 -106 609 312 
Q 188 731 188 1588 
Q 188 2391 583 2906 
Q 978 3422 1606 3422 
z
" transform="scale(0.015625)"/>
       <path id="Helvetica-75" d="M 975 3347 
L 975 1125 
Q 975 869 1056 706 
Q 1206 406 1616 406 
Q 2203 406 2416 931 
Q 2531 1213 2531 1703 
L 2531 3347 
L 3094 3347 
L 3094 0 
L 2563 0 
L 2569 494 
Q 2459 303 2297 172 
Q 1975 -91 1516 -91 
Q 800 -91 541 388 
Q 400 644 400 1072 
L 400 3347 
L 975 3347 
z
M 1747 3428 
L 1747 3428 
z
" transform="scale(0.015625)"/>
       <path id="Helvetica-6e" d="M 413 3347 
L 947 3347 
L 947 2872 
Q 1184 3166 1450 3294 
Q 1716 3422 2041 3422 
Q 2753 3422 3003 2925 
Q 3141 2653 3141 2147 
L 3141 0 
L 2569 0 
L 2569 2109 
Q 2569 2416 2478 2603 
Q 2328 2916 1934 2916 
Q 1734 2916 1606 2875 
Q 1375 2806 1200 2600 
Q 1059 2434 1017 2257 
Q 975 2081 975 1753 
L 975 0 
L 413 0 
L 413 3347 
z
M 1734 3428 
L 1734 3428 
z
" transform="scale(0.015625)"/>
       <path id="Helvetica-63" d="M 1703 3444 
Q 2269 3444 2623 3169 
Q 2978 2894 3050 2222 
L 2503 2222 
Q 2453 2531 2275 2736 
Q 2097 2941 1703 2941 
Q 1166 2941 934 2416 
Q 784 2075 784 1575 
Q 784 1072 996 728 
Q 1209 384 1666 384 
Q 2016 384 2220 598 
Q 2425 813 2503 1184 
L 3050 1184 
Q 2956 519 2581 211 
Q 2206 -97 1622 -97 
Q 966 -97 575 383 
Q 184 863 184 1581 
Q 184 2463 612 2953 
Q 1041 3444 1703 3444 
z
M 1616 3428 
L 1616 3428 
z
" transform="scale(0.015625)"/>
       <path id="Helvetica-79" d="M 2503 3347 
L 3125 3347 
Q 3006 3025 2597 1878 
Q 2291 1016 2084 472 
Q 1597 -809 1397 -1090 
Q 1197 -1372 709 -1372 
Q 591 -1372 527 -1362 
Q 463 -1353 369 -1328 
L 369 -816 
Q 516 -856 581 -865 
Q 647 -875 697 -875 
Q 853 -875 926 -823 
Q 1000 -772 1050 -697 
Q 1066 -672 1162 -440 
Q 1259 -209 1303 -97 
L 66 3347 
L 703 3347 
L 1600 622 
L 2503 3347 
z
M 1597 3428 
L 1597 3428 
z
" transform="scale(0.015625)"/>
      </defs>
      <use xlink:href="#Helvetica-46"/>
      <use xlink:href="#Helvetica-72" x="61.083984"/>
      <use xlink:href="#Helvetica-65" x="94.384766"/>
      <use xlink:href="#Helvetica-71" x="150"/>
      <use xlink:href="#Helvetica-75" x="205.615234"/>
      <use xlink:href="#Helvetica-65" x="261.230469"/>
      <use xlink:href="#Helvetica-6e" x="316.845703"/>
      <use xlink:href="#Helvetica-63" x="372.460938"/>
      <use xlink:href="#Helvetica-79" x="422.460938"/>
     </g>
    </g>
   </g>
   <g id="line2d_12">
    <path d="M 97.54956 228.526 
L 101.79925 228.526 
L 106.04894 228.526 
L 110.29863 228.526 
L 114.54832 228.526 
L 118.79801 228.526 
L 123.0477 228.526 
L 127.29739 228.526 
L 131.54708 116.5812 
L 135.79677 136.9348 
L 140.04646 131.8464 
L 144.29615 126.758 
L 148.54584 197.9956 
L 152.79553 121.6696 
L 157.04522 111.4928 
L 161.29491 101.316 
L 165.5446 157.2884 
L 169.79429 157.2884 
L 174.04398 142.0232 
L 178.29367 106.4044 
L 182.54336 152.2 
L 186.79305 96.2276 
L 191.04274 116.5812 
L 195.29243 136.9348 
L 199.54212 172.5536 
L 203.79181 131.8464 
L 208.0415 121.6696 
L 212.29119 167.4652 
L 216.54088 131.8464 
L 220.79057 126.758 
L 225.04026 131.8464 
L 229.28995 80.9624 
L 233.53964 131.8464 
L 237.78933 126.758 
L 242.03902 162.3768 
L 246.28871 152.2 
L 250.5384 131.8464 
L 254.78809 187.8188 
L 259.03778 121.6696 
L 263.28747 147.1116 
L 267.53716 147.1116 
L 271.78685 70.7856 
L 276.03654 131.8464 
L 280.28623 142.0232 
L 284.53592 136.9348 
L 288.78561 126.758 
L 293.0353 136.9348 
L 297.28499 136.9348 
L 301.53468 147.1116 
L 305.78437 142.0232 
L 310.03406 136.9348 
L 314.28375 116.5812 
L 318.53344 157.2884 
L 322.78313 152.2 
L 327.03282 142.0232 
L 331.28251 136.9348 
L 335.5322 80.9624 
L 339.78189 111.4928 
L 344.03158 136.9348 
L 348.28127 147.1116 
L 352.53096 162.3768 
L 356.78065 121.6696 
L 361.03034 152.2 
L 365.28003 126.758 
L 369.52972 116.5812 
L 373.77941 131.8464 
L 378.0291 162.3768 
L 382.27879 126.758 
L 386.52848 106.4044 
L 390.77817 142.0232 
L 395.02786 172.5536 
L 399.27755 136.9348 
L 403.52724 167.4652 
L 407.77693 147.1116 
L 412.02662 131.8464 
L 416.27631 131.8464 
L 420.526 228.526 
L 424.77569 228.526 
L 429.02538 228.526 
L 433.27507 228.526 
" clip-path="url(#p32991c62cd)" style="fill: none; stroke: #330000; stroke-linecap: square"/>
   </g>
   <g id="line2d_13">
    <path d="M 97.54956 228.526 
L 101.79925 228.526 
L 106.04894 228.526 
L 110.29863 228.526 
L 114.54832 228.526 
L 118.79801 228.526 
L 123.0477 228.526 
L 127.29739 228.526 
L 131.54708 126.758 
L 135.79677 162.3768 
L 140.04646 116.5812 
L 144.29615 147.1116 
L 148.54584 157.2884 
L 152.79553 121.6696 
L 157.04522 136.9348 
L 161.29491 142.0232 
L 165.5446 106.4044 
L 169.79429 162.3768 
L 174.04398 126.758 
L 178.29367 121.6696 
L 182.54336 111.4928 
L 186.79305 106.4044 
L 191.04274 152.2 
L 195.29243 157.2884 
L 199.54212 111.4928 
L 203.79181 111.4928 
L 208.0415 142.0232 
L 212.29119 126.758 
L 216.54088 106.4044 
L 220.79057 136.9348 
L 225.04026 142.0232 
L 229.28995 157.2884 
L 233.53964 111.4928 
L 237.78933 147.1116 
L 242.03902 126.758 
L 246.28871 157.2884 
L 250.5384 167.4652 
L 254.78809 172.5536 
L 259.03778 147.1116 
L 263.28747 131.8464 
L 267.53716 126.758 
L 271.78685 142.0232 
L 276.03654 147.1116 
L 280.28623 111.4928 
L 284.53592 121.6696 
L 288.78561 187.8188 
L 293.0353 152.2 
L 297.28499 126.758 
L 301.53468 126.758 
L 305.78437 75.874 
L 310.03406 142.0232 
L 314.28375 131.8464 
L 318.53344 126.758 
L 322.78313 111.4928 
L 327.03282 136.9348 
L 331.28251 126.758 
L 335.5322 147.1116 
L 339.78189 116.5812 
L 344.03158 126.758 
L 348.28127 152.2 
L 352.53096 162.3768 
L 356.78065 142.0232 
L 361.03034 167.4652 
L 365.28003 162.3768 
L 369.52972 126.758 
L 373.77941 121.6696 
L 378.0291 121.6696 
L 382.27879 131.8464 
L 386.52848 86.0508 
L 390.77817 147.1116 
L 395.02786 136.9348 
L 399.27755 116.5812 
L 403.52724 121.6696 
L 407.77693 142.0232 
L 412.02662 136.9348 
L 416.27631 177.642 
L 420.526 228.526 
L 424.77569 228.526 
L 429.02538 228.526 
L 433.27507 228.526 
" clip-path="url(#p32991c62cd)" style="fill: none; stroke: #4d0000; stroke-linecap: square"/>
   </g>
   <g id="line2d_14">
    <path d="M 97.54956 228.526 
L 101.79925 228.526 
L 106.04894 228.526 
L 110.29863 228.526 
L 114.54832 228.526 
L 118.79801 228.526 
L 123.0477 228.526 
L 127.29739 228.526 
L 131.54708 116.5812 
L 135.79677 136.9348 
L 140.04646 116.5812 
L 144.29615 131.8464 
L 148.54584 142.0232 
L 152.79553 116.5812 
L 157.04522 157.2884 
L 161.29491 121.6696 
L 165.5446 136.9348 
L 169.79429 142.0232 
L 174.04398 111.4928 
L 178.29367 121.6696 
L 182.54336 172.5536 
L 186.79305 131.8464 
L 191.04274 121.6696 
L 195.29243 136.9348 
L 199.54212 152.2 
L 203.79181 111.4928 
L 208.0415 126.758 
L 212.29119 131.8464 
L 216.54088 126.758 
L 220.79057 126.758 
L 225.04026 131.8464 
L 229.28995 126.758 
L 233.53964 116.5812 
L 237.78933 116.5812 
L 242.03902 121.6696 
L 246.28871 142.0232 
L 250.5384 136.9348 
L 254.78809 136.9348 
L 259.03778 121.6696 
L 263.28747 147.1116 
L 267.53716 147.1116 
L 271.78685 111.4928 
L 276.03654 147.1116 
L 280.28623 152.2 
L 284.53592 136.9348 
L 288.78561 162.3768 
L 293.0353 142.0232 
L 297.28499 121.6696 
L 301.53468 162.3768 
L 305.78437 91.1392 
L 310.03406 131.8464 
L 314.28375 162.3768 
L 318.53344 147.1116 
L 322.78313 126.758 
L 327.03282 131.8464 
L 331.28251 111.4928 
L 335.5322 172.5536 
L 339.78189 147.1116 
L 344.03158 126.758 
L 348.28127 152.2 
L 352.53096 131.8464 
L 356.78065 142.0232 
L 361.03034 177.642 
L 365.28003 142.0232 
L 369.52972 136.9348 
L 373.77941 111.4928 
L 378.0291 131.8464 
L 382.27879 106.4044 
L 386.52848 106.4044 
L 390.77817 142.0232 
L 395.02786 136.9348 
L 399.27755 126.758 
L 403.52724 126.758 
L 407.77693 172.5536 
L 412.02662 147.1116 
L 416.27631 157.2884 
L 420.526 228.526 
L 424.77569 228.526 
L 429.02538 228.526 
L 433.27507 228.526 
" clip-path="url(#p32991c62cd)" style="fill: none; stroke: #660000; stroke-linecap: square"/>
   </g>
   <g id="line2d_15">
    <path d="M 97.54956 228.526 
L 101.79925 228.526 
L 106.04894 228.526 
L 110.29863 228.526 
L 114.54832 228.526 
L 118.79801 228.526 
L 123.0477 228.526 
L 127.29739 228.526 
L 131.54708 121.6696 
L 135.79677 177.642 
L 140.04646 91.1392 
L 144.29615 126.758 
L 148.54584 152.2 
L 152.79553 126.758 
L 157.04522 167.4652 
L 161.29491 147.1116 
L 165.5446 126.758 
L 169.79429 147.1116 
L 174.04398 131.8464 
L 178.29367 152.2 
L 182.54336 172.5536 
L 186.79305 136.9348 
L 191.04274 126.758 
L 195.29243 131.8464 
L 199.54212 131.8464 
L 203.79181 116.5812 
L 208.0415 35.1668 
L 212.29119 136.9348 
L 216.54088 116.5812 
L 220.79057 142.0232 
L 225.04026 147.1116 
L 229.28995 126.758 
L 233.53964 121.6696 
L 237.78933 121.6696 
L 242.03902 157.2884 
L 246.28871 157.2884 
L 250.5384 131.8464 
L 254.78809 116.5812 
L 259.03778 126.758 
L 263.28747 147.1116 
L 267.53716 167.4652 
L 271.78685 116.5812 
L 276.03654 136.9348 
L 280.28623 147.1116 
L 284.53592 131.8464 
L 288.78561 152.2 
L 293.0353 116.5812 
L 297.28499 126.758 
L 301.53468 162.3768 
L 305.78437 136.9348 
L 310.03406 116.5812 
L 314.28375 136.9348 
L 318.53344 101.316 
L 322.78313 147.1116 
L 327.03282 147.1116 
L 331.28251 131.8464 
L 335.5322 142.0232 
L 339.78189 106.4044 
L 344.03158 70.7856 
L 348.28127 142.0232 
L 352.53096 147.1116 
L 356.78065 142.0232 
L 361.03034 101.316 
L 365.28003 131.8464 
L 369.52972 131.8464 
L 373.77941 142.0232 
L 378.0291 147.1116 
L 382.27879 157.2884 
L 386.52848 157.2884 
L 390.77817 142.0232 
L 395.02786 121.6696 
L 399.27755 116.5812 
L 403.52724 147.1116 
L 407.77693 126.758 
L 412.02662 157.2884 
L 416.27631 162.3768 
L 420.526 228.526 
L 424.77569 228.526 
L 429.02538 228.526 
L 433.27507 228.526 
" clip-path="url(#p32991c62cd)" style="fill: none; stroke: #800000; stroke-linecap: square"/>
   </g>
   <g id="line2d_16">
    <path d="M 97.54956 228.526 
L 101.79925 228.526 
L 106.04894 228.526 
L 110.29863 228.526 
L 114.54832 228.526 
L 118.79801 228.526 
L 123.0477 228.526 
L 127.29739 228.526 
L 131.54708 142.0232 
L 135.79677 121.6696 
L 140.04646 111.4928 
L 144.29615 142.0232 
L 148.54584 152.2 
L 152.79553 131.8464 
L 157.04522 131.8464 
L 161.29491 142.0232 
L 165.5446 152.2 
L 169.79429 172.5536 
L 174.04398 131.8464 
L 178.29367 131.8464 
L 182.54336 147.1116 
L 186.79305 116.5812 
L 191.04274 142.0232 
L 195.29243 131.8464 
L 199.54212 131.8464 
L 203.79181 91.1392 
L 208.0415 157.2884 
L 212.29119 131.8464 
L 216.54088 177.642 
L 220.79057 147.1116 
L 225.04026 126.758 
L 229.28995 162.3768 
L 233.53964 157.2884 
L 237.78933 126.758 
L 242.03902 142.0232 
L 246.28871 121.6696 
L 250.5384 157.2884 
L 254.78809 172.5536 
L 259.03778 106.4044 
L 263.28747 136.9348 
L 267.53716 131.8464 
L 271.78685 152.2 
L 276.03654 147.1116 
L 280.28623 111.4928 
L 284.53592 126.758 
L 288.78561 121.6696 
L 293.0353 121.6696 
L 297.28499 126.758 
L 301.53468 116.5812 
L 305.78437 126.758 
L 310.03406 152.2 
L 314.28375 157.2884 
L 318.53344 172.5536 
L 322.78313 131.8464 
L 327.03282 157.2884 
L 331.28251 152.2 
L 335.5322 106.4044 
L 339.78189 157.2884 
L 344.03158 152.2 
L 348.28127 116.5812 
L 352.53096 136.9348 
L 356.78065 111.4928 
L 361.03034 131.8464 
L 365.28003 167.4652 
L 369.52972 126.758 
L 373.77941 101.316 
L 378.0291 126.758 
L 382.27879 131.8464 
L 386.52848 55.5204 
L 390.77817 121.6696 
L 395.02786 157.2884 
L 399.27755 121.6696 
L 403.52724 152.2 
L 407.77693 126.758 
L 412.02662 142.0232 
L 416.27631 126.758 
L 420.526 228.526 
L 424.77569 228.526 
L 429.02538 228.526 
L 433.27507 228.526 
" clip-path="url(#p32991c62cd)" style="fill: none; stroke: #990000; stroke-linecap: square"/>
   </g>
   <g id="line2d_17">
    <path d="M 97.54956 228.526 
L 101.79925 228.526 
L 106.04894 228.526 
L 110.29863 228.526 
L 114.54832 228.526 
L 118.79801 228.526 
L 123.0477 228.526 
L 127.29739 228.526 
L 131.54708 121.6696 
L 135.79677 157.2884 
L 140.04646 126.758 
L 144.29615 131.8464 
L 148.54584 147.1116 
L 152.79553 147.1116 
L 157.04522 136.9348 
L 161.29491 142.0232 
L 165.5446 121.6696 
L 169.79429 126.758 
L 174.04398 111.4928 
L 178.29367 152.2 
L 182.54336 142.0232 
L 186.79305 121.6696 
L 191.04274 142.0232 
L 195.29243 157.2884 
L 199.54212 152.2 
L 203.79181 126.758 
L 208.0415 131.8464 
L 212.29119 131.8464 
L 216.54088 111.4928 
L 220.79057 126.758 
L 225.04026 126.758 
L 229.28995 147.1116 
L 233.53964 142.0232 
L 237.78933 147.1116 
L 242.03902 106.4044 
L 246.28871 121.6696 
L 250.5384 177.642 
L 254.78809 147.1116 
L 259.03778 131.8464 
L 263.28747 131.8464 
L 267.53716 136.9348 
L 271.78685 147.1116 
L 276.03654 101.316 
L 280.28623 106.4044 
L 284.53592 157.2884 
L 288.78561 96.2276 
L 293.0353 152.2 
L 297.28499 86.0508 
L 301.53468 142.0232 
L 305.78437 136.9348 
L 310.03406 142.0232 
L 314.28375 65.6972 
L 318.53344 136.9348 
L 322.78313 126.758 
L 327.03282 152.2 
L 331.28251 142.0232 
L 335.5322 126.758 
L 339.78189 152.2 
L 344.03158 142.0232 
L 348.28127 167.4652 
L 352.53096 131.8464 
L 356.78065 111.4928 
L 361.03034 116.5812 
L 365.28003 142.0232 
L 369.52972 75.874 
L 373.77941 142.0232 
L 378.0291 152.2 
L 382.27879 126.758 
L 386.52848 157.2884 
L 390.77817 147.1116 
L 395.02786 152.2 
L 399.27755 147.1116 
L 403.52724 86.0508 
L 407.77693 96.2276 
L 412.02662 131.8464 
L 416.27631 172.5536 
L 420.526 228.526 
L 424.77569 228.526 
L 429.02538 228.526 
L 433.27507 228.526 
" clip-path="url(#p32991c62cd)" style="fill: none; stroke: #b20000; stroke-linecap: square"/>
   </g>
   <g id="line2d_18">
    <path d="M 97.54956 228.526 
L 101.79925 228.526 
L 106.04894 228.526 
L 110.29863 228.526 
L 114.54832 228.526 
L 118.79801 228.526 
L 123.0477 228.526 
L 127.29739 228.526 
L 131.54708 106.4044 
L 135.79677 131.8464 
L 140.04646 131.8464 
L 144.29615 101.316 
L 148.54584 106.4044 
L 152.79553 136.9348 
L 157.04522 157.2884 
L 161.29491 121.6696 
L 165.5446 142.0232 
L 169.79429 147.1116 
L 174.04398 142.0232 
L 178.29367 106.4044 
L 182.54336 126.758 
L 186.79305 96.2276 
L 191.04274 177.642 
L 195.29243 116.5812 
L 199.54212 157.2884 
L 203.79181 162.3768 
L 208.0415 116.5812 
L 212.29119 131.8464 
L 216.54088 142.0232 
L 220.79057 126.758 
L 225.04026 147.1116 
L 229.28995 162.3768 
L 233.53964 126.758 
L 237.78933 136.9348 
L 242.03902 147.1116 
L 246.28871 182.7304 
L 250.5384 136.9348 
L 254.78809 136.9348 
L 259.03778 162.3768 
L 263.28747 80.9624 
L 267.53716 167.4652 
L 271.78685 136.9348 
L 276.03654 126.758 
L 280.28623 121.6696 
L 284.53592 142.0232 
L 288.78561 121.6696 
L 293.0353 162.3768 
L 297.28499 142.0232 
L 301.53468 116.5812 
L 305.78437 121.6696 
L 310.03406 91.1392 
L 314.28375 111.4928 
L 318.53344 131.8464 
L 322.78313 126.758 
L 327.03282 142.0232 
L 331.28251 177.642 
L 335.5322 136.9348 
L 339.78189 142.0232 
L 344.03158 147.1116 
L 348.28127 111.4928 
L 352.53096 142.0232 
L 356.78065 162.3768 
L 361.03034 106.4044 
L 365.28003 131.8464 
L 369.52972 147.1116 
L 373.77941 131.8464 
L 378.0291 126.758 
L 382.27879 111.4928 
L 386.52848 172.5536 
L 390.77817 106.4044 
L 395.02786 152.2 
L 399.27755 131.8464 
L 403.52724 142.0232 
L 407.77693 177.642 
L 412.02662 162.3768 
L 416.27631 152.2 
L 420.526 228.526 
L 424.77569 228.526 
L 429.02538 228.526 
L 433.27507 228.526 
" clip-path="url(#p32991c62cd)" style="fill: none; stroke: #cc0000; stroke-linecap: square"/>
   </g>
   <g id="line2d_19">
    <path d="M 97.54956 228.526 
L 101.79925 228.526 
L 106.04894 228.526 
L 110.29863 228.526 
L 114.54832 228.526 
L 118.79801 228.526 
L 123.0477 228.526 
L 127.29739 228.526 
L 131.54708 142.0232 
L 135.79677 131.8464 
L 140.04646 142.0232 
L 144.29615 142.0232 
L 148.54584 147.1116 
L 152.79553 136.9348 
L 157.04522 136.9348 
L 161.29491 152.2 
L 165.5446 106.4044 
L 169.79429 136.9348 
L 174.04398 152.2 
L 178.29367 111.4928 
L 182.54336 147.1116 
L 186.79305 147.1116 
L 191.04274 142.0232 
L 195.29243 116.5812 
L 199.54212 182.7304 
L 203.79181 116.5812 
L 208.0415 177.642 
L 212.29119 116.5812 
L 216.54088 106.4044 
L 220.79057 147.1116 
L 225.04026 172.5536 
L 229.28995 157.2884 
L 233.53964 106.4044 
L 237.78933 152.2 
L 242.03902 152.2 
L 246.28871 182.7304 
L 250.5384 126.758 
L 254.78809 121.6696 
L 259.03778 106.4044 
L 263.28747 197.9956 
L 267.53716 142.0232 
L 271.78685 147.1116 
L 276.03654 152.2 
L 280.28623 126.758 
L 284.53592 116.5812 
L 288.78561 101.316 
L 293.0353 131.8464 
L 297.28499 106.4044 
L 301.53468 101.316 
L 305.78437 106.4044 
L 310.03406 142.0232 
L 314.28375 101.316 
L 318.53344 126.758 
L 322.78313 157.2884 
L 327.03282 136.9348 
L 331.28251 152.2 
L 335.5322 136.9348 
L 339.78189 136.9348 
L 344.03158 162.3768 
L 348.28127 147.1116 
L 352.53096 136.9348 
L 356.78065 136.9348 
L 361.03034 86.0508 
L 365.28003 121.6696 
L 369.52972 142.0232 
L 373.77941 116.5812 
L 378.0291 121.6696 
L 382.27879 157.2884 
L 386.52848 101.316 
L 390.77817 111.4928 
L 395.02786 136.9348 
L 399.27755 121.6696 
L 403.52724 136.9348 
L 407.77693 172.5536 
L 412.02662 142.0232 
L 416.27631 121.6696 
L 420.526 228.526 
L 424.77569 228.526 
L 429.02538 228.526 
L 433.27507 228.526 
" clip-path="url(#p32991c62cd)" style="fill: none; stroke: #e60000; stroke-linecap: square"/>
   </g>
   <g id="patch_3">
    <path d="M 48.678125 228.526 
L 48.678125 24.99 
" style="fill: none; stroke: #000000; stroke-linejoin: miter; stroke-linecap: square"/>
   </g>
   <g id="patch_4">
    <path d="M 52.927815 233.6144 
L 477.896815 233.6144 
" style="fill: none; stroke: #000000; stroke-linejoin: miter; stroke-linecap: square"/>
   </g>
   <g id="text_14">
    <!-- Age Distribution by Blood Group -->
    <g transform="translate(151.133565 18.99) scale(0.16 -0.16)">
     <defs>
      <path id="Helvetica-20" transform="scale(0.015625)"/>
      <path id="Helvetica-44" d="M 2250 531 
Q 2566 531 2769 597 
Q 3131 719 3363 1066 
Q 3547 1344 3628 1778 
Q 3675 2038 3675 2259 
Q 3675 3113 3336 3584 
Q 2997 4056 2244 4056 
L 1141 4056 
L 1141 531 
L 2250 531 
z
M 516 4591 
L 2375 4591 
Q 3322 4591 3844 3919 
Q 4309 3313 4309 2366 
Q 4309 1634 4034 1044 
Q 3550 0 2369 0 
L 516 0 
L 516 4591 
z
" transform="scale(0.015625)"/>
      <path id="Helvetica-69" d="M 413 3331 
L 984 3331 
L 984 0 
L 413 0 
L 413 3331 
z
M 413 4591 
L 984 4591 
L 984 3953 
L 413 3953 
L 413 4591 
z
" transform="scale(0.015625)"/>
      <path id="Helvetica-73" d="M 747 1050 
Q 772 769 888 619 
Q 1100 347 1625 347 
Q 1938 347 2175 483 
Q 2413 619 2413 903 
Q 2413 1119 2222 1231 
Q 2100 1300 1741 1391 
L 1294 1503 
Q 866 1609 663 1741 
Q 300 1969 300 2372 
Q 300 2847 642 3140 
Q 984 3434 1563 3434 
Q 2319 3434 2653 2991 
Q 2863 2709 2856 2384 
L 2325 2384 
Q 2309 2575 2191 2731 
Q 1997 2953 1519 2953 
Q 1200 2953 1036 2831 
Q 872 2709 872 2509 
Q 872 2291 1088 2159 
Q 1213 2081 1456 2022 
L 1828 1931 
Q 2434 1784 2641 1647 
Q 2969 1431 2969 969 
Q 2969 522 2630 197 
Q 2291 -128 1597 -128 
Q 850 -128 539 211 
Q 228 550 206 1050 
L 747 1050 
z
M 1578 3428 
L 1578 3428 
z
" transform="scale(0.015625)"/>
      <path id="Helvetica-74" d="M 525 4281 
L 1094 4281 
L 1094 3347 
L 1628 3347 
L 1628 2888 
L 1094 2888 
L 1094 703 
Q 1094 528 1213 469 
Q 1278 434 1431 434 
Q 1472 434 1519 436 
Q 1566 438 1628 444 
L 1628 0 
Q 1531 -28 1426 -40 
Q 1322 -53 1200 -53 
Q 806 -53 665 148 
Q 525 350 525 672 
L 525 2888 
L 72 2888 
L 72 3347 
L 525 3347 
L 525 4281 
z
" transform="scale(0.015625)"/>
      <path id="Helvetica-62" d="M 369 4606 
L 916 4606 
L 916 2941 
Q 1100 3181 1356 3307 
Q 1613 3434 1913 3434 
Q 2538 3434 2927 3004 
Q 3316 2575 3316 1738 
Q 3316 944 2931 419 
Q 2547 -106 1866 -106 
Q 1484 -106 1222 78 
Q 1066 188 888 428 
L 888 0 
L 369 0 
L 369 4606 
z
M 1831 391 
Q 2288 391 2514 753 
Q 2741 1116 2741 1709 
Q 2741 2238 2514 2584 
Q 2288 2931 1847 2931 
Q 1463 2931 1173 2647 
Q 884 2363 884 1709 
Q 884 1238 1003 944 
Q 1225 391 1831 391 
z
" transform="scale(0.015625)"/>
      <path id="Helvetica-6f" d="M 1741 363 
Q 2300 363 2508 786 
Q 2716 1209 2716 1728 
Q 2716 2197 2566 2491 
Q 2328 2953 1747 2953 
Q 1231 2953 997 2559 
Q 763 2166 763 1609 
Q 763 1075 997 719 
Q 1231 363 1741 363 
z
M 1763 3444 
Q 2409 3444 2856 3012 
Q 3303 2581 3303 1744 
Q 3303 934 2909 406 
Q 2516 -122 1688 -122 
Q 997 -122 590 345 
Q 184 813 184 1600 
Q 184 2444 612 2944 
Q 1041 3444 1763 3444 
z
M 1744 3428 
L 1744 3428 
z
" transform="scale(0.015625)"/>
      <path id="Helvetica-42" d="M 2213 2650 
Q 2606 2650 2825 2759 
Q 3169 2931 3169 3378 
Q 3169 3828 2803 3984 
Q 2597 4072 2191 4072 
L 1081 4072 
L 1081 2650 
L 2213 2650 
z
M 2422 531 
Q 2994 531 3238 863 
Q 3391 1072 3391 1369 
Q 3391 1869 2944 2050 
Q 2706 2147 2316 2147 
L 1081 2147 
L 1081 531 
L 2422 531 
z
M 472 4591 
L 2444 4591 
Q 3250 4591 3591 4109 
Q 3791 3825 3791 3453 
Q 3791 3019 3544 2741 
Q 3416 2594 3175 2472 
Q 3528 2338 3703 2169 
Q 4013 1869 4013 1341 
Q 4013 897 3734 538 
Q 3319 0 2413 0 
L 472 0 
L 472 4591 
z
" transform="scale(0.015625)"/>
      <path id="Helvetica-6c" d="M 428 4591 
L 991 4591 
L 991 0 
L 428 0 
L 428 4591 
z
" transform="scale(0.015625)"/>
      <path id="Helvetica-64" d="M 769 1634 
Q 769 1097 997 734 
Q 1225 372 1728 372 
Q 2119 372 2370 708 
Q 2622 1044 2622 1672 
Q 2622 2306 2362 2611 
Q 2103 2916 1722 2916 
Q 1297 2916 1033 2591 
Q 769 2266 769 1634 
z
M 1616 3406 
Q 2000 3406 2259 3244 
Q 2409 3150 2600 2916 
L 2600 4606 
L 3141 4606 
L 3141 0 
L 2634 0 
L 2634 466 
Q 2438 156 2169 18 
Q 1900 -119 1553 -119 
Q 994 -119 584 351 
Q 175 822 175 1603 
Q 175 2334 548 2870 
Q 922 3406 1616 3406 
z
" transform="scale(0.015625)"/>
      <path id="Helvetica-47" d="M 2472 4709 
Q 3119 4709 3591 4459 
Q 4275 4100 4428 3200 
L 3813 3200 
Q 3700 3703 3347 3933 
Q 2994 4163 2456 4163 
Q 1819 4163 1383 3684 
Q 947 3206 947 2259 
Q 947 1441 1306 927 
Q 1666 413 2478 413 
Q 3100 413 3508 773 
Q 3916 1134 3925 1941 
L 2488 1941 
L 2488 2456 
L 4503 2456 
L 4503 0 
L 4103 0 
L 3953 591 
Q 3638 244 3394 109 
Q 2984 -122 2353 -122 
Q 1538 -122 950 406 
Q 309 1069 309 2225 
Q 309 3378 934 4059 
Q 1528 4709 2472 4709 
z
M 2369 4716 
L 2369 4716 
z
" transform="scale(0.015625)"/>
      <path id="Helvetica-70" d="M 1825 378 
Q 2219 378 2480 708 
Q 2741 1038 2741 1694 
Q 2741 2094 2625 2381 
Q 2406 2934 1825 2934 
Q 1241 2934 1025 2350 
Q 909 2038 909 1556 
Q 909 1169 1025 897 
Q 1244 378 1825 378 
z
M 369 3331 
L 916 3331 
L 916 2888 
Q 1084 3116 1284 3241 
Q 1569 3428 1953 3428 
Q 2522 3428 2919 2992 
Q 3316 2556 3316 1747 
Q 3316 653 2744 184 
Q 2381 -113 1900 -113 
Q 1522 -113 1266 53 
Q 1116 147 931 375 
L 931 -1334 
L 369 -1334 
L 369 3331 
z
" transform="scale(0.015625)"/>
     </defs>
     <use xlink:href="#Helvetica-41"/>
     <use xlink:href="#Helvetica-67" x="66.699219"/>
     <use xlink:href="#Helvetica-65" x="122.314453"/>
     <use xlink:href="#Helvetica-20" x="177.929688"/>
     <use xlink:href="#Helvetica-44" x="205.712891"/>
     <use xlink:href="#Helvetica-69" x="277.929688"/>
     <use xlink:href="#Helvetica-73" x="300.146484"/>
     <use xlink:href="#Helvetica-74" x="350.146484"/>
     <use xlink:href="#Helvetica-72" x="377.929688"/>
     <use xlink:href="#Helvetica-69" x="411.230469"/>
     <use xlink:href="#Helvetica-62" x="433.447266"/>
     <use xlink:href="#Helvetica-75" x="489.0625"/>
     <use xlink:href="#Helvetica-74" x="544.677734"/>
     <use xlink:href="#Helvetica-69" x="572.460938"/>
     <use xlink:href="#Helvetica-6f" x="594.677734"/>
     <use xlink:href="#Helvetica-6e" x="650.292969"/>
     <use xlink:href="#Helvetica-20" x="705.908203"/>
     <use xlink:href="#Helvetica-62" x="733.691406"/>
     <use xlink:href="#Helvetica-79" x="789.306641"/>
     <use xlink:href="#Helvetica-20" x="839.306641"/>
     <use xlink:href="#Helvetica-42" x="867.089844"/>
     <use xlink:href="#Helvetica-6c" x="933.789062"/>
     <use xlink:href="#Helvetica-6f" x="956.005859"/>
     <use xlink:href="#Helvetica-6f" x="1011.621094"/>
     <use xlink:href="#Helvetica-64" x="1067.236328"/>
     <use xlink:href="#Helvetica-20" x="1122.851562"/>
     <use xlink:href="#Helvetica-47" x="1150.634766"/>
     <use xlink:href="#Helvetica-72" x="1228.417969"/>
     <use xlink:href="#Helvetica-6f" x="1261.71875"/>
     <use xlink:href="#Helvetica-75" x="1317.333984"/>
     <use xlink:href="#Helvetica-70" x="1372.949219"/>
    </g>
   </g>
   <g id="legend_1">
    <g id="text_15">
     <!-- Blood Group -->
     <g transform="translate(61.927815 41.35875) scale(0.1 -0.1)">
      <use xlink:href="#Helvetica-42"/>
      <use xlink:href="#Helvetica-6c" x="66.699219"/>
      <use xlink:href="#Helvetica-6f" x="88.916016"/>
      <use xlink:href="#Helvetica-6f" x="144.53125"/>
      <use xlink:href="#Helvetica-64" x="200.146484"/>
      <use xlink:href="#Helvetica-20" x="255.761719"/>
      <use xlink:href="#Helvetica-47" x="283.544922"/>
      <use xlink:href="#Helvetica-72" x="361.328125"/>
      <use xlink:href="#Helvetica-6f" x="394.628906"/>
      <use xlink:href="#Helvetica-75" x="450.244141"/>
      <use xlink:href="#Helvetica-70" x="505.859375"/>
     </g>
    </g>
    <g id="line2d_20">
     <path d="M 66.409065 52.116563 
L 76.409065 52.116563 
L 86.409065 52.116563 
" style="fill: none; stroke: #330000; stroke-linecap: square"/>
    </g>
    <g id="text_16">
     <!-- O- -->
     <g transform="translate(94.409065 55.616563) scale(0.1 -0.1)">
      <defs>
       <path id="Helvetica-4f" d="M 2469 4716 
Q 3684 4716 4269 3934 
Q 4725 3325 4725 2375 
Q 4725 1347 4203 666 
Q 3591 -134 2456 -134 
Q 1397 -134 791 566 
Q 250 1241 250 2272 
Q 250 3203 713 3866 
Q 1306 4716 2469 4716 
z
M 2531 422 
Q 3353 422 3720 1011 
Q 4088 1600 4088 2366 
Q 4088 3175 3664 3669 
Q 3241 4163 2506 4163 
Q 1794 4163 1344 3673 
Q 894 3184 894 2231 
Q 894 1469 1280 945 
Q 1666 422 2531 422 
z
M 2488 4716 
L 2488 4716 
z
" transform="scale(0.015625)"/>
       <path id="Helvetica-2d" d="M 266 2072 
L 1834 2072 
L 1834 1494 
L 266 1494 
L 266 2072 
z
" transform="scale(0.015625)"/>
      </defs>
      <use xlink:href="#Helvetica-4f"/>
      <use xlink:href="#Helvetica-2d" x="77.783203"/>
     </g>
    </g>
    <g id="line2d_21">
     <path d="M 66.409065 66.374375 
L 76.409065 66.374375 
L 86.409065 66.374375 
" style="fill: none; stroke: #4d0000; stroke-linecap: square"/>
    </g>
    <g id="text_17">
     <!-- O+ -->
     <g transform="translate(94.409065 69.874375) scale(0.1 -0.1)">
      <defs>
       <path id="Helvetica-2b" d="M 288 1369 
L 288 1894 
L 1650 1894 
L 1650 3266 
L 2184 3266 
L 2184 1894 
L 3547 1894 
L 3547 1369 
L 2184 1369 
L 2184 0 
L 1650 0 
L 1650 1369 
L 288 1369 
z
" transform="scale(0.015625)"/>
      </defs>
      <use xlink:href="#Helvetica-4f"/>
      <use xlink:href="#Helvetica-2b" x="77.783203"/>
     </g>
    </g>
    <g id="line2d_22">
     <path d="M 66.409065 80.632188 
L 76.409065 80.632188 
L 86.409065 80.632188 
" style="fill: none; stroke: #660000; stroke-linecap: square"/>
    </g>
    <g id="text_18">
     <!-- B- -->
     <g transform="translate(94.409065 84.132188) scale(0.1 -0.1)">
      <use xlink:href="#Helvetica-42"/>
      <use xlink:href="#Helvetica-2d" x="66.699219"/>
     </g>
    </g>
    <g id="line2d_23">
     <path d="M 66.409065 94.89 
L 76.409065 94.89 
L 86.409065 94.89 
" style="fill: none; stroke: #800000; stroke-linecap: square"/>
    </g>
    <g id="text_19">
     <!-- AB+ -->
     <g transform="translate(94.409065 98.39) scale(0.1 -0.1)">
      <use xlink:href="#Helvetica-41"/>
      <use xlink:href="#Helvetica-42" x="66.699219"/>
      <use xlink:href="#Helvetica-2b" x="133.398438"/>
     </g>
    </g>
    <g id="line2d_24">
     <path d="M 66.409065 109.147813 
L 76.409065 109.147813 
L 86.409065 109.147813 
" style="fill: none; stroke: #990000; stroke-linecap: square"/>
    </g>
    <g id="text_20">
     <!-- A+ -->
     <g transform="translate(94.409065 112.647813) scale(0.1 -0.1)">
      <use xlink:href="#Helvetica-41"/>
      <use xlink:href="#Helvetica-2b" x="66.699219"/>
     </g>
    </g>
    <g id="line2d_25">
     <path d="M 66.409065 123.405625 
L 76.409065 123.405625 
L 86.409065 123.405625 
" style="fill: none; stroke: #b20000; stroke-linecap: square"/>
    </g>
    <g id="text_21">
     <!-- AB- -->
     <g transform="translate(94.409065 126.905625) scale(0.1 -0.1)">
      <use xlink:href="#Helvetica-41"/>
      <use xlink:href="#Helvetica-42" x="66.699219"/>
      <use xlink:href="#Helvetica-2d" x="133.398438"/>
     </g>
    </g>
    <g id="line2d_26">
     <path d="M 66.409065 137.663438 
L 76.409065 137.663438 
L 86.409065 137.663438 
" style="fill: none; stroke: #cc0000; stroke-linecap: square"/>
    </g>
    <g id="text_22">
     <!-- A- -->
     <g transform="translate(94.409065 141.163438) scale(0.1 -0.1)">
      <use xlink:href="#Helvetica-41"/>
      <use xlink:href="#Helvetica-2d" x="66.699219"/>
     </g>
    </g>
    <g id="line2d_27">
     <path d="M 66.409065 151.92125 
L 76.409065 151.92125 
L 86.409065 151.92125 
" style="fill: none; stroke: #e60000; stroke-linecap: square"/>
    </g>
    <g id="text_23">
     <!-- B+ -->
     <g transform="translate(94.409065 155.42125) scale(0.1 -0.1)">
      <use xlink:href="#Helvetica-42"/>
      <use xlink:href="#Helvetica-2b" x="66.699219"/>
     </g>
    </g>
   </g>
  </g>
 </g>
 <defs>
  <clipPath id="p32991c62cd">
   <rect x="52.927815" y="24.99" width="424.969" height="203.536"/>
  </clipPath>
 </defs>
</svg>
